<svg xmlns="http://www.w3.org/2000/svg" version="1.1" xmlns:xlink="http://www.w3.org/1999/xlink" xmlns:svgjs="http://svgjs.com/svgjs" width="1440" height="560" preserveAspectRatio="none" viewBox="0 0 1440 560"><g mask="url(&quot;#SvgjsMask1062&quot;)" fill="none"><rect width="1440" height="560" x="0" y="0" fill="rgba(61, 25, 93, 1)"></rect><g mask="url(&quot;#SvgjsMask1063&quot;)"><path d="M1130 30L970 30L750 250" stroke-width="3.33" stroke="rgba(255, 255, 255, 1)"></path><path d="M1125 30 a5 5 0 1 0 10 0 a5 5 0 1 0 -10 0zM745 250 a5 5 0 1 0 10 0 a5 5 0 1 0 -10 0z" fill="rgba(255, 255, 255, 1)"></path><path d="M770 190L690 110L690 10" stroke-width="3.33" stroke="rgba(255, 255, 255, 1)"></path><path d="M765 190 a5 5 0 1 0 10 0 a5 5 0 1 0 -10 0zM685 10 a5 5 0 1 0 10 0 a5 5 0 1 0 -10 0z" fill="rgba(255, 255, 255, 1)"></path><path d="M50 50L10 90L10 430" stroke-width="3.33" stroke="rgba(255, 255, 255, 1)"></path><path d="M45 50 a5 5 0 1 0 10 0 a5 5 0 1 0 -10 0zM5 430 a5 5 0 1 0 10 0 a5 5 0 1 0 -10 0z" fill="rgba(255, 255, 255, 1)"></path><path d="M150 370L150 390L230 470L230 550" stroke-width="3.33" stroke="rgba(255, 255, 255, 1)"></path><path d="M145 370 a5 5 0 1 0 10 0 a5 5 0 1 0 -10 0zM225 550 a5 5 0 1 0 10 0 a5 5 0 1 0 -10 0z" fill="rgba(255, 255, 255, 1)"></path><path d="M350 150L390 110L390 10" stroke-width="3.33" stroke="rgba(255, 255, 255, 1)"></path><path d="M345 150 a5 5 0 1 0 10 0 a5 5 0 1 0 -10 0zM385 10 a5 5 0 1 0 10 0 a5 5 0 1 0 -10 0z" fill="rgba(255, 255, 255, 1)"></path><path d="M590 310L830 550L850 550L970 430" stroke-width="3.33" stroke="rgba(255, 255, 255, 1)"></path><path d="M585 310 a5 5 0 1 0 10 0 a5 5 0 1 0 -10 0zM965 430 a5 5 0 1 0 10 0 a5 5 0 1 0 -10 0z" fill="rgba(255, 255, 255, 1)"></path><path d="M330 490L130 290L130 250L30 150L30 110" stroke-width="3.33" stroke="rgba(255, 255, 255, 1)"></path><path d="M325 490 a5 5 0 1 0 10 0 a5 5 0 1 0 -10 0zM25 110 a5 5 0 1 0 10 0 a5 5 0 1 0 -10 0z" fill="rgba(255, 255, 255, 1)"></path><path d="M150 130L150 290L370 510" stroke-width="3.33" stroke="rgba(255, 255, 255, 1)"></path><path d="M145 130 a5 5 0 1 0 10 0 a5 5 0 1 0 -10 0zM365 510 a5 5 0 1 0 10 0 a5 5 0 1 0 -10 0z" fill="rgba(255, 255, 255, 1)"></path><path d="M470 150L590 150L630 190L630 270L770 410" stroke-width="3.33" stroke="rgba(255, 255, 255, 1)"></path><path d="M465 150 a5 5 0 1 0 10 0 a5 5 0 1 0 -10 0zM765 410 a5 5 0 1 0 10 0 a5 5 0 1 0 -10 0z" fill="rgba(255, 255, 255, 1)"></path><path d="M790 50L730 50L710 70L710 110L790 190" stroke-width="3.33" stroke="rgba(255, 255, 255, 1)"></path><path d="M785 50 a5 5 0 1 0 10 0 a5 5 0 1 0 -10 0zM785 190 a5 5 0 1 0 10 0 a5 5 0 1 0 -10 0z" fill="rgba(255, 255, 255, 1)"></path><path d="M810 130L750 70L730 70" stroke-width="3.33" stroke="rgba(255, 255, 255, 1)"></path><path d="M805 130 a5 5 0 1 0 10 0 a5 5 0 1 0 -10 0zM725 70 a5 5 0 1 0 10 0 a5 5 0 1 0 -10 0z" fill="rgba(255, 255, 255, 1)"></path><path d="M130 350L30 250L30 170" stroke-width="3.33" stroke="rgba(255, 255, 255, 1)"></path><path d="M125 350 a5 5 0 1 0 10 0 a5 5 0 1 0 -10 0zM25 170 a5 5 0 1 0 10 0 a5 5 0 1 0 -10 0z" fill="rgba(255, 255, 255, 1)"></path><path d="M1130 330L1110 350L1110 550" stroke-width="3.33" stroke="rgba(255, 255, 255, 1)"></path><path d="M1125 330 a5 5 0 1 0 10 0 a5 5 0 1 0 -10 0zM1105 550 a5 5 0 1 0 10 0 a5 5 0 1 0 -10 0z" fill="rgba(255, 255, 255, 1)"></path><path d="M1150 470L1130 490L1130 550" stroke-width="3.33" stroke="rgba(255, 255, 255, 1)"></path><path d="M1145 470 a5 5 0 1 0 10 0 a5 5 0 1 0 -10 0zM1125 550 a5 5 0 1 0 10 0 a5 5 0 1 0 -10 0z" fill="rgba(255, 255, 255, 1)"></path><path d="M1310 90L1310 130L1190 250L970 250" stroke-width="3.33" stroke="rgba(255, 255, 255, 1)"></path><path d="M1305 90 a5 5 0 1 0 10 0 a5 5 0 1 0 -10 0zM965 250 a5 5 0 1 0 10 0 a5 5 0 1 0 -10 0z" fill="rgba(255, 255, 255, 1)"></path><path d="M1430 510L1250 510L1130 390L1130 350L1170 310" stroke-width="3.33" stroke="rgba(255, 255, 255, 1)"></path><path d="M1425 510 a5 5 0 1 0 10 0 a5 5 0 1 0 -10 0zM1165 310 a5 5 0 1 0 10 0 a5 5 0 1 0 -10 0z" fill="rgba(255, 255, 255, 1)"></path><path d="M770 250L970 50L1090 50L1150 110" stroke-width="3.33" stroke="rgba(255, 255, 255, 1)"></path><path d="M765 250 a5 5 0 1 0 10 0 a5 5 0 1 0 -10 0zM1145 110 a5 5 0 1 0 10 0 a5 5 0 1 0 -10 0z" fill="rgba(255, 255, 255, 1)"></path><path d="M490 390L390 490L370 490L190 310L190 230" stroke-width="3.33" stroke="rgba(255, 255, 255, 1)"></path><path d="M485 390 a5 5 0 1 0 10 0 a5 5 0 1 0 -10 0zM185 230 a5 5 0 1 0 10 0 a5 5 0 1 0 -10 0z" fill="rgba(255, 255, 255, 1)"></path><path d="M550 510L490 510L450 550L290 550L250 510L250 490L270 470L290 470L310 490" stroke-width="3.33" stroke="rgba(255, 255, 255, 1)"></path><path d="M545 510 a5 5 0 1 0 10 0 a5 5 0 1 0 -10 0zM305 490 a5 5 0 1 0 10 0 a5 5 0 1 0 -10 0z" fill="rgba(255, 255, 255, 1)"></path><path d="M90 270L270 450" stroke-width="3.33" stroke="rgba(255, 255, 255, 1)"></path><path d="M85 270 a5 5 0 1 0 10 0 a5 5 0 1 0 -10 0zM265 450 a5 5 0 1 0 10 0 a5 5 0 1 0 -10 0z" fill="rgba(255, 255, 255, 1)"></path><path d="M90 450L70 430L70 390L110 350" stroke-width="3.33" stroke="rgba(255, 255, 255, 1)"></path><path d="M85 450 a5 5 0 1 0 10 0 a5 5 0 1 0 -10 0zM105 350 a5 5 0 1 0 10 0 a5 5 0 1 0 -10 0z" fill="rgba(255, 255, 255, 1)"></path><path d="M270 230L310 190L610 190" stroke-width="3.33" stroke="rgba(255, 255, 255, 1)"></path><path d="M265 230 a5 5 0 1 0 10 0 a5 5 0 1 0 -10 0zM605 190 a5 5 0 1 0 10 0 a5 5 0 1 0 -10 0z" fill="rgba(255, 255, 255, 1)"></path><path d="M490 30L490 50L370 170L170 170" stroke-width="3.33" stroke="rgba(255, 255, 255, 1)"></path><path d="M485 30 a5 5 0 1 0 10 0 a5 5 0 1 0 -10 0zM165 170 a5 5 0 1 0 10 0 a5 5 0 1 0 -10 0z" fill="rgba(255, 255, 255, 1)"></path><path d="M1410 290L1410 350L1430 370L1430 490" stroke-width="3.33" stroke="rgba(255, 255, 255, 1)"></path><path d="M1405 290 a5 5 0 1 0 10 0 a5 5 0 1 0 -10 0zM1425 490 a5 5 0 1 0 10 0 a5 5 0 1 0 -10 0z" fill="rgba(255, 255, 255, 1)"></path><path d="M90 230L50 190" stroke-width="3.33" stroke="rgba(255, 255, 255, 1)"></path><path d="M85 230 a5 5 0 1 0 10 0 a5 5 0 1 0 -10 0zM45 190 a5 5 0 1 0 10 0 a5 5 0 1 0 -10 0z" fill="rgba(255, 255, 255, 1)"></path><path d="M470 210L310 210L210 310" stroke-width="3.33" stroke="rgba(255, 255, 255, 1)"></path><path d="M465 210 a5 5 0 1 0 10 0 a5 5 0 1 0 -10 0zM205 310 a5 5 0 1 0 10 0 a5 5 0 1 0 -10 0z" fill="rgba(255, 255, 255, 1)"></path><path d="M1030 490L1030 550" stroke-width="3.33" stroke="rgba(255, 255, 255, 1)"></path><path d="M1025 490 a5 5 0 1 0 10 0 a5 5 0 1 0 -10 0zM1025 550 a5 5 0 1 0 10 0 a5 5 0 1 0 -10 0z" fill="rgba(255, 255, 255, 1)"></path><path d="M1370 410L1410 410" stroke-width="3.33" stroke="rgba(255, 255, 255, 1)"></path><path d="M1365 410 a5 5 0 1 0 10 0 a5 5 0 1 0 -10 0zM1405 410 a5 5 0 1 0 10 0 a5 5 0 1 0 -10 0z" fill="rgba(255, 255, 255, 1)"></path><path d="M1090 310L1150 310L1170 290L1170 270" stroke-width="3.33" stroke="rgba(255, 255, 255, 1)"></path><path d="M1085 310 a5 5 0 1 0 10 0 a5 5 0 1 0 -10 0zM1165 270 a5 5 0 1 0 10 0 a5 5 0 1 0 -10 0z" fill="rgba(255, 255, 255, 1)"></path><path d="M1110 110L930 110L730 310" stroke-width="3.33" stroke="rgba(255, 255, 255, 1)"></path><path d="M1105 110 a5 5 0 1 0 10 0 a5 5 0 1 0 -10 0zM725 310 a5 5 0 1 0 10 0 a5 5 0 1 0 -10 0z" fill="rgba(255, 255, 255, 1)"></path><path d="M530 330L590 330L810 550" stroke-width="3.33" stroke="rgba(255, 255, 255, 1)"></path><path d="M525 330 a5 5 0 1 0 10 0 a5 5 0 1 0 -10 0zM805 550 a5 5 0 1 0 10 0 a5 5 0 1 0 -10 0z" fill="rgba(255, 255, 255, 1)"></path><path d="M1370 450L1370 470L1350 490L1310 490L1270 450L1270 410L1210 350L1210 250L1270 190" stroke-width="3.33" stroke="rgba(255, 255, 255, 1)"></path><path d="M1365 450 a5 5 0 1 0 10 0 a5 5 0 1 0 -10 0zM1265 190 a5 5 0 1 0 10 0 a5 5 0 1 0 -10 0z" fill="rgba(255, 255, 255, 1)"></path><path d="M290 30L270 10L10 10" stroke-width="3.33" stroke="rgba(255, 255, 255, 1)"></path><path d="M285 30 a5 5 0 1 0 10 0 a5 5 0 1 0 -10 0zM5 10 a5 5 0 1 0 10 0 a5 5 0 1 0 -10 0z" fill="rgba(255, 255, 255, 1)"></path><path d="M870 390L830 350L730 350L650 270L650 110" stroke-width="3.33" stroke="rgba(255, 255, 255, 1)"></path><path d="M865 390 a5 5 0 1 0 10 0 a5 5 0 1 0 -10 0zM645 110 a5 5 0 1 0 10 0 a5 5 0 1 0 -10 0z" fill="rgba(255, 255, 255, 1)"></path><path d="M470 310L710 550L790 550" stroke-width="3.33" stroke="rgba(255, 255, 255, 1)"></path><path d="M465 310 a5 5 0 1 0 10 0 a5 5 0 1 0 -10 0zM785 550 a5 5 0 1 0 10 0 a5 5 0 1 0 -10 0z" fill="rgba(255, 255, 255, 1)"></path><path d="M1330 230L1390 290L1390 390" stroke-width="3.33" stroke="rgba(255, 255, 255, 1)"></path><path d="M1325 230 a5 5 0 1 0 10 0 a5 5 0 1 0 -10 0zM1385 390 a5 5 0 1 0 10 0 a5 5 0 1 0 -10 0z" fill="rgba(255, 255, 255, 1)"></path><path d="M250 30L250 150" stroke-width="3.33" stroke="rgba(255, 255, 255, 1)"></path><path d="M245 30 a5 5 0 1 0 10 0 a5 5 0 1 0 -10 0zM245 150 a5 5 0 1 0 10 0 a5 5 0 1 0 -10 0z" fill="rgba(255, 255, 255, 1)"></path><path d="M990 190L1010 170L1010 130" stroke-width="3.33" stroke="rgba(255, 255, 255, 1)"></path><path d="M985 190 a5 5 0 1 0 10 0 a5 5 0 1 0 -10 0zM1005 130 a5 5 0 1 0 10 0 a5 5 0 1 0 -10 0z" fill="rgba(255, 255, 255, 1)"></path><path d="M1410 230L1410 70L1430 50L1430 10" stroke-width="3.33" stroke="rgba(255, 255, 255, 1)"></path><path d="M1405 230 a5 5 0 1 0 10 0 a5 5 0 1 0 -10 0zM1425 10 a5 5 0 1 0 10 0 a5 5 0 1 0 -10 0z" fill="rgba(255, 255, 255, 1)"></path><path d="M510 250L490 230L310 230L230 310L230 330L310 410" stroke-width="3.33" stroke="rgba(255, 255, 255, 1)"></path><path d="M505 250 a5 5 0 1 0 10 0 a5 5 0 1 0 -10 0zM305 410 a5 5 0 1 0 10 0 a5 5 0 1 0 -10 0z" fill="rgba(255, 255, 255, 1)"></path><path d="M990 450L990 550" stroke-width="3.33" stroke="rgba(255, 255, 255, 1)"></path><path d="M985 450 a5 5 0 1 0 10 0 a5 5 0 1 0 -10 0zM985 550 a5 5 0 1 0 10 0 a5 5 0 1 0 -10 0z" fill="rgba(255, 255, 255, 1)"></path><path d="M430 490L450 510L450 530" stroke-width="3.33" stroke="rgba(255, 255, 255, 1)"></path><path d="M425 490 a5 5 0 1 0 10 0 a5 5 0 1 0 -10 0zM445 530 a5 5 0 1 0 10 0 a5 5 0 1 0 -10 0z" fill="rgba(255, 255, 255, 1)"></path><path d="M1170 330L1150 350L1150 390L1210 450L1250 450L1290 490" stroke-width="3.33" stroke="rgba(255, 255, 255, 1)"></path><path d="M1165 330 a5 5 0 1 0 10 0 a5 5 0 1 0 -10 0zM1285 490 a5 5 0 1 0 10 0 a5 5 0 1 0 -10 0z" fill="rgba(255, 255, 255, 1)"></path><path d="M550 470L490 410" stroke-width="3.33" stroke="rgba(255, 255, 255, 1)"></path><path d="M545 470 a5 5 0 1 0 10 0 a5 5 0 1 0 -10 0zM485 410 a5 5 0 1 0 10 0 a5 5 0 1 0 -10 0z" fill="rgba(255, 255, 255, 1)"></path><path d="M1390 550L1410 530L1430 530" stroke-width="3.33" stroke="rgba(255, 255, 255, 1)"></path><path d="M1385 550 a5 5 0 1 0 10 0 a5 5 0 1 0 -10 0zM1425 530 a5 5 0 1 0 10 0 a5 5 0 1 0 -10 0z" fill="rgba(255, 255, 255, 1)"></path><path d="M1010 350L850 350L790 290L790 270L930 130" stroke-width="3.33" stroke="rgba(255, 255, 255, 1)"></path><path d="M1005 350 a5 5 0 1 0 10 0 a5 5 0 1 0 -10 0zM925 130 a5 5 0 1 0 10 0 a5 5 0 1 0 -10 0z" fill="rgba(255, 255, 255, 1)"></path><path d="M1330 50L1330 210L1390 270L1430 270" stroke-width="3.33" stroke="rgba(255, 255, 255, 1)"></path><path d="M1325 50 a5 5 0 1 0 10 0 a5 5 0 1 0 -10 0zM1425 270 a5 5 0 1 0 10 0 a5 5 0 1 0 -10 0z" fill="rgba(255, 255, 255, 1)"></path><path d="M1150 430L1130 450L1130 470" stroke-width="3.33" stroke="rgba(255, 255, 255, 1)"></path><path d="M1145 430 a5 5 0 1 0 10 0 a5 5 0 1 0 -10 0zM1125 470 a5 5 0 1 0 10 0 a5 5 0 1 0 -10 0z" fill="rgba(255, 255, 255, 1)"></path><path d="M290 350L250 310" stroke-width="3.33" stroke="rgba(255, 255, 255, 1)"></path><path d="M285 350 a5 5 0 1 0 10 0 a5 5 0 1 0 -10 0zM245 310 a5 5 0 1 0 10 0 a5 5 0 1 0 -10 0z" fill="rgba(255, 255, 255, 1)"></path><path d="M290 110L290 50L330 10L370 10" stroke-width="3.33" stroke="rgba(255, 255, 255, 1)"></path><path d="M285 110 a5 5 0 1 0 10 0 a5 5 0 1 0 -10 0zM365 10 a5 5 0 1 0 10 0 a5 5 0 1 0 -10 0z" fill="rgba(255, 255, 255, 1)"></path><path d="M1330 390L1270 390L1230 350L1230 250L1310 170L1310 150" stroke-width="3.33" stroke="rgba(255, 255, 255, 1)"></path><path d="M1325 390 a5 5 0 1 0 10 0 a5 5 0 1 0 -10 0zM1305 150 a5 5 0 1 0 10 0 a5 5 0 1 0 -10 0z" fill="rgba(255, 255, 255, 1)"></path><path d="M1030 70L970 70L950 90" stroke-width="3.33" stroke="rgba(255, 255, 255, 1)"></path><path d="M1025 70 a5 5 0 1 0 10 0 a5 5 0 1 0 -10 0zM945 90 a5 5 0 1 0 10 0 a5 5 0 1 0 -10 0z" fill="rgba(255, 255, 255, 1)"></path><path d="M850 530L830 530L510 210L490 210" stroke-width="3.33" stroke="rgba(255, 255, 255, 1)"></path><path d="M845 530 a5 5 0 1 0 10 0 a5 5 0 1 0 -10 0zM485 210 a5 5 0 1 0 10 0 a5 5 0 1 0 -10 0z" fill="rgba(255, 255, 255, 1)"></path><path d="M1090 10L1410 10" stroke-width="3.33" stroke="rgba(255, 255, 255, 1)"></path><path d="M1085 10 a5 5 0 1 0 10 0 a5 5 0 1 0 -10 0zM1405 10 a5 5 0 1 0 10 0 a5 5 0 1 0 -10 0z" fill="rgba(255, 255, 255, 1)"></path><path d="M90 410L150 470L210 470" stroke-width="3.33" stroke="rgba(255, 255, 255, 1)"></path><path d="M85 410 a5 5 0 1 0 10 0 a5 5 0 1 0 -10 0zM205 470 a5 5 0 1 0 10 0 a5 5 0 1 0 -10 0z" fill="rgba(255, 255, 255, 1)"></path><path d="M290 290L410 410L410 450L390 470L370 470L330 430L330 350L310 330L290 330L270 310" stroke-width="3.33" stroke="rgba(255, 255, 255, 1)"></path><path d="M285 290 a5 5 0 1 0 10 0 a5 5 0 1 0 -10 0zM265 310 a5 5 0 1 0 10 0 a5 5 0 1 0 -10 0z" fill="rgba(255, 255, 255, 1)"></path><path d="M350 30L310 70L310 150" stroke-width="3.33" stroke="rgba(255, 255, 255, 1)"></path><path d="M345 30 a5 5 0 1 0 10 0 a5 5 0 1 0 -10 0zM305 150 a5 5 0 1 0 10 0 a5 5 0 1 0 -10 0z" fill="rgba(255, 255, 255, 1)"></path><path d="M1230 130L1030 130" stroke-width="3.33" stroke="rgba(255, 255, 255, 1)"></path><path d="M1225 130 a5 5 0 1 0 10 0 a5 5 0 1 0 -10 0zM1025 130 a5 5 0 1 0 10 0 a5 5 0 1 0 -10 0z" fill="rgba(255, 255, 255, 1)"></path><path d="M1150 230L850 230L810 270L810 290L830 310" stroke-width="3.33" stroke="rgba(255, 255, 255, 1)"></path><path d="M1145 230 a5 5 0 1 0 10 0 a5 5 0 1 0 -10 0zM825 310 a5 5 0 1 0 10 0 a5 5 0 1 0 -10 0z" fill="rgba(255, 255, 255, 1)"></path><path d="M110 450L110 550" stroke-width="3.33" stroke="rgba(255, 255, 255, 1)"></path><path d="M105 450 a5 5 0 1 0 10 0 a5 5 0 1 0 -10 0zM105 550 a5 5 0 1 0 10 0 a5 5 0 1 0 -10 0z" fill="rgba(255, 255, 255, 1)"></path><path d="M1130 50L1170 50L1270 150" stroke-width="3.33" stroke="rgba(255, 255, 255, 1)"></path><path d="M1125 50 a5 5 0 1 0 10 0 a5 5 0 1 0 -10 0zM1265 150 a5 5 0 1 0 10 0 a5 5 0 1 0 -10 0z" fill="rgba(255, 255, 255, 1)"></path><path d="M1270 310L1250 330L1250 350L1270 370" stroke-width="3.33" stroke="rgba(255, 255, 255, 1)"></path><path d="M1265 310 a5 5 0 1 0 10 0 a5 5 0 1 0 -10 0zM1265 370 a5 5 0 1 0 10 0 a5 5 0 1 0 -10 0z" fill="rgba(255, 255, 255, 1)"></path><path d="M730 30L750 10L1070 10" stroke-width="3.33" stroke="rgba(255, 255, 255, 1)"></path><path d="M725 30 a5 5 0 1 0 10 0 a5 5 0 1 0 -10 0zM1065 10 a5 5 0 1 0 10 0 a5 5 0 1 0 -10 0z" fill="rgba(255, 255, 255, 1)"></path><path d="M1130 190L1170 150L1250 150" stroke-width="3.33" stroke="rgba(255, 255, 255, 1)"></path><path d="M1125 190 a5 5 0 1 0 10 0 a5 5 0 1 0 -10 0zM1245 150 a5 5 0 1 0 10 0 a5 5 0 1 0 -10 0z" fill="rgba(255, 255, 255, 1)"></path><path d="M970 310L950 330L890 330L830 270" stroke-width="3.33" stroke="rgba(255, 255, 255, 1)"></path><path d="M965 310 a5 5 0 1 0 10 0 a5 5 0 1 0 -10 0zM825 270 a5 5 0 1 0 10 0 a5 5 0 1 0 -10 0z" fill="rgba(255, 255, 255, 1)"></path><path d="M790 450L790 470L830 510L870 510L1110 270L1150 270" stroke-width="3.33" stroke="rgba(255, 255, 255, 1)"></path><path d="M785 450 a5 5 0 1 0 10 0 a5 5 0 1 0 -10 0zM1145 270 a5 5 0 1 0 10 0 a5 5 0 1 0 -10 0z" fill="rgba(255, 255, 255, 1)"></path><path d="M190 450L150 450L90 390" stroke-width="3.33" stroke="rgba(255, 255, 255, 1)"></path><path d="M185 450 a5 5 0 1 0 10 0 a5 5 0 1 0 -10 0zM85 390 a5 5 0 1 0 10 0 a5 5 0 1 0 -10 0z" fill="rgba(255, 255, 255, 1)"></path><path d="M830 70L850 90L890 90L950 30" stroke-width="3.33" stroke="rgba(255, 255, 255, 1)"></path><path d="M825 70 a5 5 0 1 0 10 0 a5 5 0 1 0 -10 0zM945 30 a5 5 0 1 0 10 0 a5 5 0 1 0 -10 0z" fill="rgba(255, 255, 255, 1)"></path><path d="M90 250L50 210" stroke-width="3.33" stroke="rgba(255, 255, 255, 1)"></path><path d="M85 250 a5 5 0 1 0 10 0 a5 5 0 1 0 -10 0zM45 210 a5 5 0 1 0 10 0 a5 5 0 1 0 -10 0z" fill="rgba(255, 255, 255, 1)"></path><path d="M1210 390L1250 430" stroke-width="3.33" stroke="rgba(255, 255, 255, 1)"></path><path d="M1205 390 a5 5 0 1 0 10 0 a5 5 0 1 0 -10 0zM1245 430 a5 5 0 1 0 10 0 a5 5 0 1 0 -10 0z" fill="rgba(255, 255, 255, 1)"></path><path d="M750 230L670 230" stroke-width="3.33" stroke="rgba(255, 255, 255, 1)"></path><path d="M745 230 a5 5 0 1 0 10 0 a5 5 0 1 0 -10 0zM665 230 a5 5 0 1 0 10 0 a5 5 0 1 0 -10 0z" fill="rgba(255, 255, 255, 1)"></path><path d="M450 370L430 390L430 430" stroke-width="3.33" stroke="rgba(255, 255, 255, 1)"></path><path d="M445 370 a5 5 0 1 0 10 0 a5 5 0 1 0 -10 0zM425 430 a5 5 0 1 0 10 0 a5 5 0 1 0 -10 0z" fill="rgba(255, 255, 255, 1)"></path><path d="M90 50L70 50L50 30L10 30" stroke-width="3.33" stroke="rgba(255, 255, 255, 1)"></path><path d="M85 50 a5 5 0 1 0 10 0 a5 5 0 1 0 -10 0zM5 30 a5 5 0 1 0 10 0 a5 5 0 1 0 -10 0z" fill="rgba(255, 255, 255, 1)"></path><path d="M1050 190L1050 150" stroke-width="3.33" stroke="rgba(255, 255, 255, 1)"></path><path d="M1045 190 a5 5 0 1 0 10 0 a5 5 0 1 0 -10 0zM1045 150 a5 5 0 1 0 10 0 a5 5 0 1 0 -10 0z" fill="rgba(255, 255, 255, 1)"></path><path d="M550 210L550 230L590 270L610 270L770 430L770 450" stroke-width="3.33" stroke="rgba(255, 255, 255, 1)"></path><path d="M545 210 a5 5 0 1 0 10 0 a5 5 0 1 0 -10 0zM765 450 a5 5 0 1 0 10 0 a5 5 0 1 0 -10 0z" fill="rgba(255, 255, 255, 1)"></path><path d="M210 210L170 210" stroke-width="3.33" stroke="rgba(255, 255, 255, 1)"></path><path d="M205 210 a5 5 0 1 0 10 0 a5 5 0 1 0 -10 0zM165 210 a5 5 0 1 0 10 0 a5 5 0 1 0 -10 0z" fill="rgba(255, 255, 255, 1)"></path><path d="M930 270L1090 270" stroke-width="3.33" stroke="rgba(255, 255, 255, 1)"></path><path d="M925 270 a5 5 0 1 0 10 0 a5 5 0 1 0 -10 0zM1085 270 a5 5 0 1 0 10 0 a5 5 0 1 0 -10 0z" fill="rgba(255, 255, 255, 1)"></path><path d="M90 510L50 550L10 550" stroke-width="3.33" stroke="rgba(255, 255, 255, 1)"></path><path d="M85 510 a5 5 0 1 0 10 0 a5 5 0 1 0 -10 0zM5 550 a5 5 0 1 0 10 0 a5 5 0 1 0 -10 0z" fill="rgba(255, 255, 255, 1)"></path><path d="M450 490L450 450L470 430L490 430L610 550L690 550" stroke-width="3.33" stroke="rgba(255, 255, 255, 1)"></path><path d="M445 490 a5 5 0 1 0 10 0 a5 5 0 1 0 -10 0zM685 550 a5 5 0 1 0 10 0 a5 5 0 1 0 -10 0z" fill="rgba(255, 255, 255, 1)"></path><path d="M490 270L490 310L510 330" stroke-width="3.33" stroke="rgba(255, 255, 255, 1)"></path><path d="M485 270 a5 5 0 1 0 10 0 a5 5 0 1 0 -10 0zM505 330 a5 5 0 1 0 10 0 a5 5 0 1 0 -10 0z" fill="rgba(255, 255, 255, 1)"></path><path d="M1190 550L1150 550" stroke-width="3.33" stroke="rgba(255, 255, 255, 1)"></path><path d="M1185 550 a5 5 0 1 0 10 0 a5 5 0 1 0 -10 0zM1145 550 a5 5 0 1 0 10 0 a5 5 0 1 0 -10 0z" fill="rgba(255, 255, 255, 1)"></path><path d="M510 370L510 410L630 530L670 530" stroke-width="3.33" stroke="rgba(255, 255, 255, 1)"></path><path d="M505 370 a5 5 0 1 0 10 0 a5 5 0 1 0 -10 0zM665 530 a5 5 0 1 0 10 0 a5 5 0 1 0 -10 0z" fill="rgba(255, 255, 255, 1)"></path><path d="M450 70L430 70L410 90L410 110" stroke-width="3.33" stroke="rgba(255, 255, 255, 1)"></path><path d="M445 70 a5 5 0 1 0 10 0 a5 5 0 1 0 -10 0zM405 110 a5 5 0 1 0 10 0 a5 5 0 1 0 -10 0z" fill="rgba(255, 255, 255, 1)"></path><path d="M530 350L590 350L770 530" stroke-width="3.33" stroke="rgba(255, 255, 255, 1)"></path><path d="M525 350 a5 5 0 1 0 10 0 a5 5 0 1 0 -10 0zM765 530 a5 5 0 1 0 10 0 a5 5 0 1 0 -10 0z" fill="rgba(255, 255, 255, 1)"></path><path d="M530 530L570 530L590 550" stroke-width="3.33" stroke="rgba(255, 255, 255, 1)"></path><path d="M525 530 a5 5 0 1 0 10 0 a5 5 0 1 0 -10 0zM585 550 a5 5 0 1 0 10 0 a5 5 0 1 0 -10 0z" fill="rgba(255, 255, 255, 1)"></path><path d="M850 30L930 30" stroke-width="3.33" stroke="rgba(255, 255, 255, 1)"></path><path d="M845 30 a5 5 0 1 0 10 0 a5 5 0 1 0 -10 0zM925 30 a5 5 0 1 0 10 0 a5 5 0 1 0 -10 0z" fill="rgba(255, 255, 255, 1)"></path><path d="M30 490L50 510L70 510L90 490L90 470L70 450L10 450" stroke-width="3.33" stroke="rgba(255, 255, 255, 1)"></path><path d="M25 490 a5 5 0 1 0 10 0 a5 5 0 1 0 -10 0zM5 450 a5 5 0 1 0 10 0 a5 5 0 1 0 -10 0z" fill="rgba(255, 255, 255, 1)"></path><path d="M710 10L710 50" stroke-width="3.33" stroke="rgba(255, 255, 255, 1)"></path><path d="M705 10 a5 5 0 1 0 10 0 a5 5 0 1 0 -10 0zM705 50 a5 5 0 1 0 10 0 a5 5 0 1 0 -10 0z" fill="rgba(255, 255, 255, 1)"></path><path d="M330 510L350 510L370 530L430 530" stroke-width="3.33" stroke="rgba(255, 255, 255, 1)"></path><path d="M325 510 a5 5 0 1 0 10 0 a5 5 0 1 0 -10 0zM425 530 a5 5 0 1 0 10 0 a5 5 0 1 0 -10 0z" fill="rgba(255, 255, 255, 1)"></path><path d="M1350 170L1350 210L1390 250L1430 250" stroke-width="3.33" stroke="rgba(255, 255, 255, 1)"></path><path d="M1345 170 a5 5 0 1 0 10 0 a5 5 0 1 0 -10 0zM1425 250 a5 5 0 1 0 10 0 a5 5 0 1 0 -10 0z" fill="rgba(255, 255, 255, 1)"></path><path d="M470 50L410 50" stroke-width="3.33" stroke="rgba(255, 255, 255, 1)"></path><path d="M465 50 a5 5 0 1 0 10 0 a5 5 0 1 0 -10 0zM405 50 a5 5 0 1 0 10 0 a5 5 0 1 0 -10 0z" fill="rgba(255, 255, 255, 1)"></path><path d="M1330 290L1330 250L1290 210" stroke-width="3.33" stroke="rgba(255, 255, 255, 1)"></path><path d="M1325 290 a5 5 0 1 0 10 0 a5 5 0 1 0 -10 0zM1285 210 a5 5 0 1 0 10 0 a5 5 0 1 0 -10 0z" fill="rgba(255, 255, 255, 1)"></path><path d="M130 90L150 90L190 50L230 50" stroke-width="3.33" stroke="rgba(255, 255, 255, 1)"></path><path d="M125 90 a5 5 0 1 0 10 0 a5 5 0 1 0 -10 0zM225 50 a5 5 0 1 0 10 0 a5 5 0 1 0 -10 0z" fill="rgba(255, 255, 255, 1)"></path><path d="M770 110L730 110" stroke-width="3.33" stroke="rgba(255, 255, 255, 1)"></path><path d="M765 110 a5 5 0 1 0 10 0 a5 5 0 1 0 -10 0zM725 110 a5 5 0 1 0 10 0 a5 5 0 1 0 -10 0z" fill="rgba(255, 255, 255, 1)"></path><path d="M650 50L610 10L570 10L410 170L390 170" stroke-width="3.33" stroke="rgba(255, 255, 255, 1)"></path><path d="M645 50 a5 5 0 1 0 10 0 a5 5 0 1 0 -10 0zM385 170 a5 5 0 1 0 10 0 a5 5 0 1 0 -10 0z" fill="rgba(255, 255, 255, 1)"></path><path d="M930 510L930 550" stroke-width="3.33" stroke="rgba(255, 255, 255, 1)"></path><path d="M925 510 a5 5 0 1 0 10 0 a5 5 0 1 0 -10 0zM925 550 a5 5 0 1 0 10 0 a5 5 0 1 0 -10 0z" fill="rgba(255, 255, 255, 1)"></path><path d="M1370 190L1390 170L1390 30" stroke-width="3.33" stroke="rgba(255, 255, 255, 1)"></path><path d="M1365 190 a5 5 0 1 0 10 0 a5 5 0 1 0 -10 0zM1385 30 a5 5 0 1 0 10 0 a5 5 0 1 0 -10 0z" fill="rgba(255, 255, 255, 1)"></path><path d="M910 370L870 370" stroke-width="3.33" stroke="rgba(255, 255, 255, 1)"></path><path d="M905 370 a5 5 0 1 0 10 0 a5 5 0 1 0 -10 0zM865 370 a5 5 0 1 0 10 0 a5 5 0 1 0 -10 0z" fill="rgba(255, 255, 255, 1)"></path><path d="M810 330L790 330L770 310L770 290" stroke-width="3.33" stroke="rgba(255, 255, 255, 1)"></path><path d="M805 330 a5 5 0 1 0 10 0 a5 5 0 1 0 -10 0zM765 290 a5 5 0 1 0 10 0 a5 5 0 1 0 -10 0z" fill="rgba(255, 255, 255, 1)"></path><path d="M90 130L50 130" stroke-width="3.33" stroke="rgba(255, 255, 255, 1)"></path><path d="M85 130 a5 5 0 1 0 10 0 a5 5 0 1 0 -10 0zM45 130 a5 5 0 1 0 10 0 a5 5 0 1 0 -10 0z" fill="rgba(255, 255, 255, 1)"></path><path d="M650 450L650 430L630 410L590 410L550 370" stroke-width="3.33" stroke="rgba(255, 255, 255, 1)"></path><path d="M645 450 a5 5 0 1 0 10 0 a5 5 0 1 0 -10 0zM545 370 a5 5 0 1 0 10 0 a5 5 0 1 0 -10 0z" fill="rgba(255, 255, 255, 1)"></path><path d="M850 130L850 110L810 70L810 30" stroke-width="3.33" stroke="rgba(255, 255, 255, 1)"></path><path d="M845 130 a5 5 0 1 0 10 0 a5 5 0 1 0 -10 0zM805 30 a5 5 0 1 0 10 0 a5 5 0 1 0 -10 0z" fill="rgba(255, 255, 255, 1)"></path><path d="M490 490L470 470L470 450" stroke-width="3.33" stroke="rgba(255, 255, 255, 1)"></path><path d="M485 490 a5 5 0 1 0 10 0 a5 5 0 1 0 -10 0zM465 450 a5 5 0 1 0 10 0 a5 5 0 1 0 -10 0z" fill="rgba(255, 255, 255, 1)"></path><path d="M970 170L950 150L950 130" stroke-width="3.33" stroke="rgba(255, 255, 255, 1)"></path><path d="M965 170 a5 5 0 1 0 10 0 a5 5 0 1 0 -10 0zM945 130 a5 5 0 1 0 10 0 a5 5 0 1 0 -10 0z" fill="rgba(255, 255, 255, 1)"></path><path d="M1230 30L1290 90L1290 130" stroke-width="3.33" stroke="rgba(255, 255, 255, 1)"></path><path d="M1225 30 a5 5 0 1 0 10 0 a5 5 0 1 0 -10 0zM1285 130 a5 5 0 1 0 10 0 a5 5 0 1 0 -10 0z" fill="rgba(255, 255, 255, 1)"></path><path d="M1350 350L1370 370L1370 390L1310 450L1310 470" stroke-width="3.33" stroke="rgba(255, 255, 255, 1)"></path><path d="M1345 350 a5 5 0 1 0 10 0 a5 5 0 1 0 -10 0zM1305 470 a5 5 0 1 0 10 0 a5 5 0 1 0 -10 0z" fill="rgba(255, 255, 255, 1)"></path><path d="M150 550L150 490L130 470" stroke-width="3.33" stroke="rgba(255, 255, 255, 1)"></path><path d="M145 550 a5 5 0 1 0 10 0 a5 5 0 1 0 -10 0zM125 470 a5 5 0 1 0 10 0 a5 5 0 1 0 -10 0z" fill="rgba(255, 255, 255, 1)"></path><path d="M1270 330L1310 290L1310 250L1290 230L1270 230L1250 250L1250 310" stroke-width="3.33" stroke="rgba(255, 255, 255, 1)"></path><path d="M1265 330 a5 5 0 1 0 10 0 a5 5 0 1 0 -10 0zM1245 310 a5 5 0 1 0 10 0 a5 5 0 1 0 -10 0z" fill="rgba(255, 255, 255, 1)"></path><path d="M1070 210L1070 150" stroke-width="3.33" stroke="rgba(255, 255, 255, 1)"></path><path d="M1065 210 a5 5 0 1 0 10 0 a5 5 0 1 0 -10 0zM1065 150 a5 5 0 1 0 10 0 a5 5 0 1 0 -10 0z" fill="rgba(255, 255, 255, 1)"></path><path d="M190 130L170 110L50 110L30 90" stroke-width="3.33" stroke="rgba(255, 255, 255, 1)"></path><path d="M185 130 a5 5 0 1 0 10 0 a5 5 0 1 0 -10 0zM25 90 a5 5 0 1 0 10 0 a5 5 0 1 0 -10 0z" fill="rgba(255, 255, 255, 1)"></path><path d="M1070 510L1070 330" stroke-width="3.33" stroke="rgba(255, 255, 255, 1)"></path><path d="M1065 510 a5 5 0 1 0 10 0 a5 5 0 1 0 -10 0zM1065 330 a5 5 0 1 0 10 0 a5 5 0 1 0 -10 0z" fill="rgba(255, 255, 255, 1)"></path><path d="M230 70L190 70L170 90" stroke-width="3.33" stroke="rgba(255, 255, 255, 1)"></path><path d="M225 70 a5 5 0 1 0 10 0 a5 5 0 1 0 -10 0zM165 90 a5 5 0 1 0 10 0 a5 5 0 1 0 -10 0z" fill="rgba(255, 255, 255, 1)"></path><path d="M710 510L710 490L690 470L670 470" stroke-width="3.33" stroke="rgba(255, 255, 255, 1)"></path><path d="M705 510 a5 5 0 1 0 10 0 a5 5 0 1 0 -10 0zM665 470 a5 5 0 1 0 10 0 a5 5 0 1 0 -10 0z" fill="rgba(255, 255, 255, 1)"></path><path d="M190 30L230 30" stroke-width="3.33" stroke="rgba(255, 255, 255, 1)"></path><path d="M185 30 a5 5 0 1 0 10 0 a5 5 0 1 0 -10 0zM225 30 a5 5 0 1 0 10 0 a5 5 0 1 0 -10 0z" fill="rgba(255, 255, 255, 1)"></path><path d="M530 290L550 310L570 310" stroke-width="3.33" stroke="rgba(255, 255, 255, 1)"></path><path d="M525 290 a5 5 0 1 0 10 0 a5 5 0 1 0 -10 0zM565 310 a5 5 0 1 0 10 0 a5 5 0 1 0 -10 0z" fill="rgba(255, 255, 255, 1)"></path><path d="M110 190L130 210L130 230" stroke-width="3.33" stroke="rgba(255, 255, 255, 1)"></path><path d="M105 190 a5 5 0 1 0 10 0 a5 5 0 1 0 -10 0zM125 230 a5 5 0 1 0 10 0 a5 5 0 1 0 -10 0z" fill="rgba(255, 255, 255, 1)"></path><path d="M430 270L430 370L410 390" stroke-width="3.33" stroke="rgba(255, 255, 255, 1)"></path><path d="M425 270 a5 5 0 1 0 10 0 a5 5 0 1 0 -10 0zM405 390 a5 5 0 1 0 10 0 a5 5 0 1 0 -10 0z" fill="rgba(255, 255, 255, 1)"></path><path d="M1370 290L1350 290L1290 350L1270 350" stroke-width="3.33" stroke="rgba(255, 255, 255, 1)"></path><path d="M1365 290 a5 5 0 1 0 10 0 a5 5 0 1 0 -10 0zM1265 350 a5 5 0 1 0 10 0 a5 5 0 1 0 -10 0z" fill="rgba(255, 255, 255, 1)"></path><path d="M490 550L570 550" stroke-width="3.33" stroke="rgba(255, 255, 255, 1)"></path><path d="M485 550 a5 5 0 1 0 10 0 a5 5 0 1 0 -10 0zM565 550 a5 5 0 1 0 10 0 a5 5 0 1 0 -10 0z" fill="rgba(255, 255, 255, 1)"></path><path d="M750 210L670 210" stroke-width="3.33" stroke="rgba(255, 255, 255, 1)"></path><path d="M745 210 a5 5 0 1 0 10 0 a5 5 0 1 0 -10 0zM665 210 a5 5 0 1 0 10 0 a5 5 0 1 0 -10 0z" fill="rgba(255, 255, 255, 1)"></path><path d="M830 430L870 470L890 470L990 370" stroke-width="3.33" stroke="rgba(255, 255, 255, 1)"></path><path d="M825 430 a5 5 0 1 0 10 0 a5 5 0 1 0 -10 0zM985 370 a5 5 0 1 0 10 0 a5 5 0 1 0 -10 0z" fill="rgba(255, 255, 255, 1)"></path><path d="M210 410L210 430L250 470" stroke-width="3.33" stroke="rgba(255, 255, 255, 1)"></path><path d="M205 410 a5 5 0 1 0 10 0 a5 5 0 1 0 -10 0zM245 470 a5 5 0 1 0 10 0 a5 5 0 1 0 -10 0z" fill="rgba(255, 255, 255, 1)"></path><path d="M1290 410L1330 410" stroke-width="3.33" stroke="rgba(255, 255, 255, 1)"></path><path d="M1285 410 a5 5 0 1 0 10 0 a5 5 0 1 0 -10 0zM1325 410 a5 5 0 1 0 10 0 a5 5 0 1 0 -10 0z" fill="rgba(255, 255, 255, 1)"></path><path d="M910 530L890 530L870 550" stroke-width="3.33" stroke="rgba(255, 255, 255, 1)"></path><path d="M905 530 a5 5 0 1 0 10 0 a5 5 0 1 0 -10 0zM865 550 a5 5 0 1 0 10 0 a5 5 0 1 0 -10 0z" fill="rgba(255, 255, 255, 1)"></path><path d="M230 110L190 110" stroke-width="3.33" stroke="rgba(255, 255, 255, 1)"></path><path d="M225 110 a5 5 0 1 0 10 0 a5 5 0 1 0 -10 0zM185 110 a5 5 0 1 0 10 0 a5 5 0 1 0 -10 0z" fill="rgba(255, 255, 255, 1)"></path><path d="M790 430L850 490L870 490" stroke-width="3.33" stroke="rgba(255, 255, 255, 1)"></path><path d="M785 430 a5 5 0 1 0 10 0 a5 5 0 1 0 -10 0zM865 490 a5 5 0 1 0 10 0 a5 5 0 1 0 -10 0z" fill="rgba(255, 255, 255, 1)"></path><path d="M1170 490L1170 450" stroke-width="3.33" stroke="rgba(255, 255, 255, 1)"></path><path d="M1165 490 a5 5 0 1 0 10 0 a5 5 0 1 0 -10 0zM1165 450 a5 5 0 1 0 10 0 a5 5 0 1 0 -10 0z" fill="rgba(255, 255, 255, 1)"></path><path d="M1250 170L1170 170L1130 210L1090 210" stroke-width="3.33" stroke="rgba(255, 255, 255, 1)"></path><path d="M1245 170 a5 5 0 1 0 10 0 a5 5 0 1 0 -10 0zM1085 210 a5 5 0 1 0 10 0 a5 5 0 1 0 -10 0z" fill="rgba(255, 255, 255, 1)"></path><path d="M1050 210L1030 210L1010 190" stroke-width="3.33" stroke="rgba(255, 255, 255, 1)"></path><path d="M1045 210 a5 5 0 1 0 10 0 a5 5 0 1 0 -10 0zM1005 190 a5 5 0 1 0 10 0 a5 5 0 1 0 -10 0z" fill="rgba(255, 255, 255, 1)"></path><path d="M810 170L810 150L830 130L830 110L790 70L770 70" stroke-width="3.33" stroke="rgba(255, 255, 255, 1)"></path><path d="M805 170 a5 5 0 1 0 10 0 a5 5 0 1 0 -10 0zM765 70 a5 5 0 1 0 10 0 a5 5 0 1 0 -10 0z" fill="rgba(255, 255, 255, 1)"></path><path d="M270 190L270 210L230 250L210 250" stroke-width="3.33" stroke="rgba(255, 255, 255, 1)"></path><path d="M265 190 a5 5 0 1 0 10 0 a5 5 0 1 0 -10 0zM205 250 a5 5 0 1 0 10 0 a5 5 0 1 0 -10 0z" fill="rgba(255, 255, 255, 1)"></path><path d="M1350 390L1350 370L1330 350L1310 350" stroke-width="3.33" stroke="rgba(255, 255, 255, 1)"></path><path d="M1345 390 a5 5 0 1 0 10 0 a5 5 0 1 0 -10 0zM1305 350 a5 5 0 1 0 10 0 a5 5 0 1 0 -10 0z" fill="rgba(255, 255, 255, 1)"></path><path d="M630 110L670 70L670 50" stroke-width="3.33" stroke="rgba(255, 255, 255, 1)"></path><path d="M625 110 a5 5 0 1 0 10 0 a5 5 0 1 0 -10 0zM665 50 a5 5 0 1 0 10 0 a5 5 0 1 0 -10 0z" fill="rgba(255, 255, 255, 1)"></path><path d="M1210 30L1210 70L1270 130" stroke-width="3.33" stroke="rgba(255, 255, 255, 1)"></path><path d="M1205 30 a5 5 0 1 0 10 0 a5 5 0 1 0 -10 0zM1265 130 a5 5 0 1 0 10 0 a5 5 0 1 0 -10 0z" fill="rgba(255, 255, 255, 1)"></path><path d="M1310 30L1310 70" stroke-width="3.33" stroke="rgba(255, 255, 255, 1)"></path><path d="M1305 30 a5 5 0 1 0 10 0 a5 5 0 1 0 -10 0zM1305 70 a5 5 0 1 0 10 0 a5 5 0 1 0 -10 0z" fill="rgba(255, 255, 255, 1)"></path><path d="M970 490L970 450" stroke-width="3.33" stroke="rgba(255, 255, 255, 1)"></path><path d="M965 490 a5 5 0 1 0 10 0 a5 5 0 1 0 -10 0zM965 450 a5 5 0 1 0 10 0 a5 5 0 1 0 -10 0z" fill="rgba(255, 255, 255, 1)"></path><path d="M1130 170L1110 190L1090 190" stroke-width="3.33" stroke="rgba(255, 255, 255, 1)"></path><path d="M1125 170 a5 5 0 1 0 10 0 a5 5 0 1 0 -10 0zM1085 190 a5 5 0 1 0 10 0 a5 5 0 1 0 -10 0z" fill="rgba(255, 255, 255, 1)"></path><path d="M910 250L910 290L930 310L950 310L970 290L1030 290" stroke-width="3.33" stroke="rgba(255, 255, 255, 1)"></path><path d="M905 250 a5 5 0 1 0 10 0 a5 5 0 1 0 -10 0zM1025 290 a5 5 0 1 0 10 0 a5 5 0 1 0 -10 0z" fill="rgba(255, 255, 255, 1)"></path><path d="M70 90L110 50L110 30" stroke-width="3.33" stroke="rgba(255, 255, 255, 1)"></path><path d="M65 90 a5 5 0 1 0 10 0 a5 5 0 1 0 -10 0zM105 30 a5 5 0 1 0 10 0 a5 5 0 1 0 -10 0z" fill="rgba(255, 255, 255, 1)"></path><path d="M1190 290L1190 330L1170 350" stroke-width="3.33" stroke="rgba(255, 255, 255, 1)"></path><path d="M1185 290 a5 5 0 1 0 10 0 a5 5 0 1 0 -10 0zM1165 350 a5 5 0 1 0 10 0 a5 5 0 1 0 -10 0z" fill="rgba(255, 255, 255, 1)"></path><path d="M1170 90L1150 70L1130 70" stroke-width="3.33" stroke="rgba(255, 255, 255, 1)"></path><path d="M1165 90 a5 5 0 1 0 10 0 a5 5 0 1 0 -10 0zM1125 70 a5 5 0 1 0 10 0 a5 5 0 1 0 -10 0z" fill="rgba(255, 255, 255, 1)"></path><path d="M630 130L570 130" stroke-width="3.33" stroke="rgba(255, 255, 255, 1)"></path><path d="M625 130 a5 5 0 1 0 10 0 a5 5 0 1 0 -10 0zM565 130 a5 5 0 1 0 10 0 a5 5 0 1 0 -10 0z" fill="rgba(255, 255, 255, 1)"></path><path d="M1290 530L1270 550L1210 550L1170 510L1150 510" stroke-width="3.33" stroke="rgba(255, 255, 255, 1)"></path><path d="M1285 530 a5 5 0 1 0 10 0 a5 5 0 1 0 -10 0zM1145 510 a5 5 0 1 0 10 0 a5 5 0 1 0 -10 0z" fill="rgba(255, 255, 255, 1)"></path><path d="M110 390L130 390L170 430" stroke-width="3.33" stroke="rgba(255, 255, 255, 1)"></path><path d="M105 390 a5 5 0 1 0 10 0 a5 5 0 1 0 -10 0zM165 430 a5 5 0 1 0 10 0 a5 5 0 1 0 -10 0z" fill="rgba(255, 255, 255, 1)"></path><path d="M370 390L390 410L390 430" stroke-width="3.33" stroke="rgba(255, 255, 255, 1)"></path><path d="M365 390 a5 5 0 1 0 10 0 a5 5 0 1 0 -10 0zM385 430 a5 5 0 1 0 10 0 a5 5 0 1 0 -10 0z" fill="rgba(255, 255, 255, 1)"></path><path d="M50 490L30 470L10 470" stroke-width="3.33" stroke="rgba(255, 255, 255, 1)"></path><path d="M45 490 a5 5 0 1 0 10 0 a5 5 0 1 0 -10 0zM5 470 a5 5 0 1 0 10 0 a5 5 0 1 0 -10 0z" fill="rgba(255, 255, 255, 1)"></path><path d="M450 250L330 250" stroke-width="3.33" stroke="rgba(255, 255, 255, 1)"></path><path d="M445 250 a5 5 0 1 0 10 0 a5 5 0 1 0 -10 0zM325 250 a5 5 0 1 0 10 0 a5 5 0 1 0 -10 0z" fill="rgba(255, 255, 255, 1)"></path><path d="M790 390L810 410L910 410L950 370L970 370" stroke-width="3.33" stroke="rgba(255, 255, 255, 1)"></path><path d="M785 390 a5 5 0 1 0 10 0 a5 5 0 1 0 -10 0zM965 370 a5 5 0 1 0 10 0 a5 5 0 1 0 -10 0z" fill="rgba(255, 255, 255, 1)"></path><path d="M430 30L450 10L550 10" stroke-width="3.33" stroke="rgba(255, 255, 255, 1)"></path><path d="M425 30 a5 5 0 1 0 10 0 a5 5 0 1 0 -10 0zM545 10 a5 5 0 1 0 10 0 a5 5 0 1 0 -10 0z" fill="rgba(255, 255, 255, 1)"></path><path d="M270 30L270 110" stroke-width="3.33" stroke="rgba(255, 255, 255, 1)"></path><path d="M265 30 a5 5 0 1 0 10 0 a5 5 0 1 0 -10 0zM265 110 a5 5 0 1 0 10 0 a5 5 0 1 0 -10 0z" fill="rgba(255, 255, 255, 1)"></path><path d="M1330 530L1310 550L1290 550" stroke-width="3.33" stroke="rgba(255, 255, 255, 1)"></path><path d="M1325 530 a5 5 0 1 0 10 0 a5 5 0 1 0 -10 0zM1285 550 a5 5 0 1 0 10 0 a5 5 0 1 0 -10 0z" fill="rgba(255, 255, 255, 1)"></path><path d="M1370 490L1390 490L1410 470L1410 450L1390 430L1350 430L1330 450L1330 470" stroke-width="3.33" stroke="rgba(255, 255, 255, 1)"></path><path d="M1365 490 a5 5 0 1 0 10 0 a5 5 0 1 0 -10 0zM1325 470 a5 5 0 1 0 10 0 a5 5 0 1 0 -10 0z" fill="rgba(255, 255, 255, 1)"></path><path d="M1190 210L1210 210L1230 190" stroke-width="3.33" stroke="rgba(255, 255, 255, 1)"></path><path d="M1185 210 a5 5 0 1 0 10 0 a5 5 0 1 0 -10 0zM1225 190 a5 5 0 1 0 10 0 a5 5 0 1 0 -10 0z" fill="rgba(255, 255, 255, 1)"></path><path d="M870 210L1010 210" stroke-width="3.33" stroke="rgba(255, 255, 255, 1)"></path><path d="M865 210 a5 5 0 1 0 10 0 a5 5 0 1 0 -10 0zM1005 210 a5 5 0 1 0 10 0 a5 5 0 1 0 -10 0z" fill="rgba(255, 255, 255, 1)"></path><path d="M350 110L370 90L370 50" stroke-width="3.33" stroke="rgba(255, 255, 255, 1)"></path><path d="M345 110 a5 5 0 1 0 10 0 a5 5 0 1 0 -10 0zM365 50 a5 5 0 1 0 10 0 a5 5 0 1 0 -10 0z" fill="rgba(255, 255, 255, 1)"></path><path d="M370 330L410 370" stroke-width="3.33" stroke="rgba(255, 255, 255, 1)"></path><path d="M365 330 a5 5 0 1 0 10 0 a5 5 0 1 0 -10 0zM405 370 a5 5 0 1 0 10 0 a5 5 0 1 0 -10 0z" fill="rgba(255, 255, 255, 1)"></path><path d="M190 90L230 90" stroke-width="3.33" stroke="rgba(255, 255, 255, 1)"></path><path d="M185 90 a5 5 0 1 0 10 0 a5 5 0 1 0 -10 0zM225 90 a5 5 0 1 0 10 0 a5 5 0 1 0 -10 0z" fill="rgba(255, 255, 255, 1)"></path><path d="M610 70L570 30" stroke-width="3.33" stroke="rgba(255, 255, 255, 1)"></path><path d="M605 70 a5 5 0 1 0 10 0 a5 5 0 1 0 -10 0zM565 30 a5 5 0 1 0 10 0 a5 5 0 1 0 -10 0z" fill="rgba(255, 255, 255, 1)"></path><path d="M170 30L110 90L90 90" stroke-width="3.33" stroke="rgba(255, 255, 255, 1)"></path><path d="M165 30 a5 5 0 1 0 10 0 a5 5 0 1 0 -10 0zM85 90 a5 5 0 1 0 10 0 a5 5 0 1 0 -10 0z" fill="rgba(255, 255, 255, 1)"></path><path d="M350 310L370 310L390 330L410 330" stroke-width="3.33" stroke="rgba(255, 255, 255, 1)"></path><path d="M345 310 a5 5 0 1 0 10 0 a5 5 0 1 0 -10 0zM405 330 a5 5 0 1 0 10 0 a5 5 0 1 0 -10 0z" fill="rgba(255, 255, 255, 1)"></path><path d="M1190 230L1170 230L1150 210" stroke-width="3.33" stroke="rgba(255, 255, 255, 1)"></path><path d="M1185 230 a5 5 0 1 0 10 0 a5 5 0 1 0 -10 0zM1145 210 a5 5 0 1 0 10 0 a5 5 0 1 0 -10 0z" fill="rgba(255, 255, 255, 1)"></path><path d="M1050 70L1070 90L1110 90" stroke-width="3.33" stroke="rgba(255, 255, 255, 1)"></path><path d="M1045 70 a5 5 0 1 0 10 0 a5 5 0 1 0 -10 0zM1105 90 a5 5 0 1 0 10 0 a5 5 0 1 0 -10 0z" fill="rgba(255, 255, 255, 1)"></path><path d="M890 290L870 290L850 270L850 250" stroke-width="3.33" stroke="rgba(255, 255, 255, 1)"></path><path d="M885 290 a5 5 0 1 0 10 0 a5 5 0 1 0 -10 0zM845 250 a5 5 0 1 0 10 0 a5 5 0 1 0 -10 0z" fill="rgba(255, 255, 255, 1)"></path><path d="M730 270L670 270" stroke-width="3.33" stroke="rgba(255, 255, 255, 1)"></path><path d="M725 270 a5 5 0 1 0 10 0 a5 5 0 1 0 -10 0zM665 270 a5 5 0 1 0 10 0 a5 5 0 1 0 -10 0z" fill="rgba(255, 255, 255, 1)"></path><path d="M1230 510L1210 510L1190 490L1190 470" stroke-width="3.33" stroke="rgba(255, 255, 255, 1)"></path><path d="M1225 510 a5 5 0 1 0 10 0 a5 5 0 1 0 -10 0zM1185 470 a5 5 0 1 0 10 0 a5 5 0 1 0 -10 0z" fill="rgba(255, 255, 255, 1)"></path><path d="M590 70L570 50L550 50L530 70L530 130" stroke-width="3.33" stroke="rgba(255, 255, 255, 1)"></path><path d="M585 70 a5 5 0 1 0 10 0 a5 5 0 1 0 -10 0zM525 130 a5 5 0 1 0 10 0 a5 5 0 1 0 -10 0z" fill="rgba(255, 255, 255, 1)"></path><path d="M1050 510L1050 350" stroke-width="3.33" stroke="rgba(255, 255, 255, 1)"></path><path d="M1045 510 a5 5 0 1 0 10 0 a5 5 0 1 0 -10 0zM1045 350 a5 5 0 1 0 10 0 a5 5 0 1 0 -10 0z" fill="rgba(255, 255, 255, 1)"></path><path d="M1370 130L1370 30" stroke-width="3.33" stroke="rgba(255, 255, 255, 1)"></path><path d="M1365 130 a5 5 0 1 0 10 0 a5 5 0 1 0 -10 0zM1365 30 a5 5 0 1 0 10 0 a5 5 0 1 0 -10 0z" fill="rgba(255, 255, 255, 1)"></path><path d="M1030 190L1030 150" stroke-width="3.33" stroke="rgba(255, 255, 255, 1)"></path><path d="M1025 190 a5 5 0 1 0 10 0 a5 5 0 1 0 -10 0zM1025 150 a5 5 0 1 0 10 0 a5 5 0 1 0 -10 0z" fill="rgba(255, 255, 255, 1)"></path><path d="M210 550L170 510L170 490" stroke-width="3.33" stroke="rgba(255, 255, 255, 1)"></path><path d="M205 550 a5 5 0 1 0 10 0 a5 5 0 1 0 -10 0zM165 490 a5 5 0 1 0 10 0 a5 5 0 1 0 -10 0z" fill="rgba(255, 255, 255, 1)"></path><path d="M1330 330L1350 310L1370 310" stroke-width="3.33" stroke="rgba(255, 255, 255, 1)"></path><path d="M1325 330 a5 5 0 1 0 10 0 a5 5 0 1 0 -10 0zM1365 310 a5 5 0 1 0 10 0 a5 5 0 1 0 -10 0z" fill="rgba(255, 255, 255, 1)"></path><path d="M70 310L90 330L90 350L50 390L50 410" stroke-width="3.33" stroke="rgba(255, 255, 255, 1)"></path><path d="M65 310 a5 5 0 1 0 10 0 a5 5 0 1 0 -10 0zM45 410 a5 5 0 1 0 10 0 a5 5 0 1 0 -10 0z" fill="rgba(255, 255, 255, 1)"></path><path d="M590 110L570 110L550 90L550 70" stroke-width="3.33" stroke="rgba(255, 255, 255, 1)"></path><path d="M585 110 a5 5 0 1 0 10 0 a5 5 0 1 0 -10 0zM545 70 a5 5 0 1 0 10 0 a5 5 0 1 0 -10 0z" fill="rgba(255, 255, 255, 1)"></path><path d="M790 370L810 390L850 390" stroke-width="3.33" stroke="rgba(255, 255, 255, 1)"></path><path d="M785 370 a5 5 0 1 0 10 0 a5 5 0 1 0 -10 0zM845 390 a5 5 0 1 0 10 0 a5 5 0 1 0 -10 0z" fill="rgba(255, 255, 255, 1)"></path><path d="M370 270L410 270" stroke-width="3.33" stroke="rgba(255, 255, 255, 1)"></path><path d="M365 270 a5 5 0 1 0 10 0 a5 5 0 1 0 -10 0zM405 270 a5 5 0 1 0 10 0 a5 5 0 1 0 -10 0z" fill="rgba(255, 255, 255, 1)"></path><path d="M470 370L470 390L450 410" stroke-width="3.33" stroke="rgba(255, 255, 255, 1)"></path><path d="M465 370 a5 5 0 1 0 10 0 a5 5 0 1 0 -10 0zM445 410 a5 5 0 1 0 10 0 a5 5 0 1 0 -10 0z" fill="rgba(255, 255, 255, 1)"></path><path d="M1010 410L1010 550" stroke-width="3.33" stroke="rgba(255, 255, 255, 1)"></path><path d="M1005 410 a5 5 0 1 0 10 0 a5 5 0 1 0 -10 0zM1005 550 a5 5 0 1 0 10 0 a5 5 0 1 0 -10 0z" fill="rgba(255, 255, 255, 1)"></path><path d="M1430 90L1430 230" stroke-width="3.33" stroke="rgba(255, 255, 255, 1)"></path><path d="M1425 90 a5 5 0 1 0 10 0 a5 5 0 1 0 -10 0zM1425 230 a5 5 0 1 0 10 0 a5 5 0 1 0 -10 0z" fill="rgba(255, 255, 255, 1)"></path><path d="M1370 170L1370 150L1350 130L1350 30" stroke-width="3.33" stroke="rgba(255, 255, 255, 1)"></path><path d="M1365 170 a5 5 0 1 0 10 0 a5 5 0 1 0 -10 0zM1345 30 a5 5 0 1 0 10 0 a5 5 0 1 0 -10 0z" fill="rgba(255, 255, 255, 1)"></path><path d="M910 50L890 70L850 70L830 50" stroke-width="3.33" stroke="rgba(255, 255, 255, 1)"></path><path d="M905 50 a5 5 0 1 0 10 0 a5 5 0 1 0 -10 0zM825 50 a5 5 0 1 0 10 0 a5 5 0 1 0 -10 0z" fill="rgba(255, 255, 255, 1)"></path><path d="M790 150L770 150L750 130" stroke-width="3.33" stroke="rgba(255, 255, 255, 1)"></path><path d="M785 150 a5 5 0 1 0 10 0 a5 5 0 1 0 -10 0zM745 130 a5 5 0 1 0 10 0 a5 5 0 1 0 -10 0z" fill="rgba(255, 255, 255, 1)"></path><path d="M890 190L930 150" stroke-width="3.33" stroke="rgba(255, 255, 255, 1)"></path><path d="M885 190 a5 5 0 1 0 10 0 a5 5 0 1 0 -10 0zM925 150 a5 5 0 1 0 10 0 a5 5 0 1 0 -10 0z" fill="rgba(255, 255, 255, 1)"></path><path d="M250 190L190 190" stroke-width="3.33" stroke="rgba(255, 255, 255, 1)"></path><path d="M245 190 a5 5 0 1 0 10 0 a5 5 0 1 0 -10 0zM185 190 a5 5 0 1 0 10 0 a5 5 0 1 0 -10 0z" fill="rgba(255, 255, 255, 1)"></path><path d="M50 230L50 250L70 270" stroke-width="3.33" stroke="rgba(255, 255, 255, 1)"></path><path d="M45 230 a5 5 0 1 0 10 0 a5 5 0 1 0 -10 0zM65 270 a5 5 0 1 0 10 0 a5 5 0 1 0 -10 0z" fill="rgba(255, 255, 255, 1)"></path><path d="M450 310L470 290L470 270" stroke-width="3.33" stroke="rgba(255, 255, 255, 1)"></path><path d="M445 310 a5 5 0 1 0 10 0 a5 5 0 1 0 -10 0zM465 270 a5 5 0 1 0 10 0 a5 5 0 1 0 -10 0z" fill="rgba(255, 255, 255, 1)"></path><path d="M30 350L70 350" stroke-width="3.33" stroke="rgba(255, 255, 255, 1)"></path><path d="M25 350 a5 5 0 1 0 10 0 a5 5 0 1 0 -10 0zM65 350 a5 5 0 1 0 10 0 a5 5 0 1 0 -10 0z" fill="rgba(255, 255, 255, 1)"></path><path d="M610 90L570 90" stroke-width="3.33" stroke="rgba(255, 255, 255, 1)"></path><path d="M605 90 a5 5 0 1 0 10 0 a5 5 0 1 0 -10 0zM565 90 a5 5 0 1 0 10 0 a5 5 0 1 0 -10 0z" fill="rgba(255, 255, 255, 1)"></path><path d="M570 170L430 170" stroke-width="3.33" stroke="rgba(255, 255, 255, 1)"></path><path d="M565 170 a5 5 0 1 0 10 0 a5 5 0 1 0 -10 0zM425 170 a5 5 0 1 0 10 0 a5 5 0 1 0 -10 0z" fill="rgba(255, 255, 255, 1)"></path><path d="M610 470L590 470L570 450L570 430" stroke-width="3.33" stroke="rgba(255, 255, 255, 1)"></path><path d="M605 470 a5 5 0 1 0 10 0 a5 5 0 1 0 -10 0zM565 430 a5 5 0 1 0 10 0 a5 5 0 1 0 -10 0z" fill="rgba(255, 255, 255, 1)"></path><path d="M330 530L290 490L270 490" stroke-width="3.33" stroke="rgba(255, 255, 255, 1)"></path><path d="M325 530 a5 5 0 1 0 10 0 a5 5 0 1 0 -10 0zM265 490 a5 5 0 1 0 10 0 a5 5 0 1 0 -10 0z" fill="rgba(255, 255, 255, 1)"></path><path d="M310 530L290 510L270 510" stroke-width="3.33" stroke="rgba(255, 255, 255, 1)"></path><path d="M305 530 a5 5 0 1 0 10 0 a5 5 0 1 0 -10 0zM265 510 a5 5 0 1 0 10 0 a5 5 0 1 0 -10 0z" fill="rgba(255, 255, 255, 1)"></path><path d="M630 90L630 50" stroke-width="3.33" stroke="rgba(255, 255, 255, 1)"></path><path d="M625 90 a5 5 0 1 0 10 0 a5 5 0 1 0 -10 0zM625 50 a5 5 0 1 0 10 0 a5 5 0 1 0 -10 0z" fill="rgba(255, 255, 255, 1)"></path><path d="M410 290L330 290" stroke-width="3.33" stroke="rgba(255, 255, 255, 1)"></path><path d="M405 290 a5 5 0 1 0 10 0 a5 5 0 1 0 -10 0zM325 290 a5 5 0 1 0 10 0 a5 5 0 1 0 -10 0z" fill="rgba(255, 255, 255, 1)"></path><path d="M70 150L110 150" stroke-width="3.33" stroke="rgba(255, 255, 255, 1)"></path><path d="M65 150 a5 5 0 1 0 10 0 a5 5 0 1 0 -10 0zM105 150 a5 5 0 1 0 10 0 a5 5 0 1 0 -10 0z" fill="rgba(255, 255, 255, 1)"></path><path d="M1030 430L1030 470" stroke-width="3.33" stroke="rgba(255, 255, 255, 1)"></path><path d="M1025 430 a5 5 0 1 0 10 0 a5 5 0 1 0 -10 0zM1025 470 a5 5 0 1 0 10 0 a5 5 0 1 0 -10 0z" fill="rgba(255, 255, 255, 1)"></path><path d="M50 290L50 330" stroke-width="3.33" stroke="rgba(255, 255, 255, 1)"></path><path d="M45 290 a5 5 0 1 0 10 0 a5 5 0 1 0 -10 0zM45 330 a5 5 0 1 0 10 0 a5 5 0 1 0 -10 0z" fill="rgba(255, 255, 255, 1)"></path><path d="M1090 330L1090 370" stroke-width="3.33" stroke="rgba(255, 255, 255, 1)"></path><path d="M1085 330 a5 5 0 1 0 10 0 a5 5 0 1 0 -10 0zM1085 370 a5 5 0 1 0 10 0 a5 5 0 1 0 -10 0z" fill="rgba(255, 255, 255, 1)"></path></g></g><defs><mask id="SvgjsMask1062"><rect width="1440" height="560" fill="#ffffff"></rect></mask><mask id="SvgjsMask1063"><rect width="1440" height="560" fill="white"></rect><path d="M1127.5 30 a2.5 2.5 0 1 0 5 0 a2.5 2.5 0 1 0 -5 0zM747.5 250 a2.5 2.5 0 1 0 5 0 a2.5 2.5 0 1 0 -5 0z" fill="black"></path><path d="M767.5 190 a2.5 2.5 0 1 0 5 0 a2.5 2.5 0 1 0 -5 0zM687.5 10 a2.5 2.5 0 1 0 5 0 a2.5 2.5 0 1 0 -5 0z" fill="black"></path><path d="M47.5 50 a2.5 2.5 0 1 0 5 0 a2.5 2.5 0 1 0 -5 0zM7.5 430 a2.5 2.5 0 1 0 5 0 a2.5 2.5 0 1 0 -5 0z" fill="black"></path><path d="M147.5 370 a2.5 2.5 0 1 0 5 0 a2.5 2.5 0 1 0 -5 0zM227.5 550 a2.5 2.5 0 1 0 5 0 a2.5 2.5 0 1 0 -5 0z" fill="black"></path><path d="M347.5 150 a2.5 2.5 0 1 0 5 0 a2.5 2.5 0 1 0 -5 0zM387.5 10 a2.5 2.5 0 1 0 5 0 a2.5 2.5 0 1 0 -5 0z" fill="black"></path><path d="M587.5 310 a2.5 2.5 0 1 0 5 0 a2.5 2.5 0 1 0 -5 0zM967.5 430 a2.5 2.5 0 1 0 5 0 a2.5 2.5 0 1 0 -5 0z" fill="black"></path><path d="M327.5 490 a2.5 2.5 0 1 0 5 0 a2.5 2.5 0 1 0 -5 0zM27.5 110 a2.5 2.5 0 1 0 5 0 a2.5 2.5 0 1 0 -5 0z" fill="black"></path><path d="M147.5 130 a2.5 2.5 0 1 0 5 0 a2.5 2.5 0 1 0 -5 0zM367.5 510 a2.5 2.5 0 1 0 5 0 a2.5 2.5 0 1 0 -5 0z" fill="black"></path><path d="M467.5 150 a2.5 2.5 0 1 0 5 0 a2.5 2.5 0 1 0 -5 0zM767.5 410 a2.5 2.5 0 1 0 5 0 a2.5 2.5 0 1 0 -5 0z" fill="black"></path><path d="M787.5 50 a2.5 2.5 0 1 0 5 0 a2.5 2.5 0 1 0 -5 0zM787.5 190 a2.5 2.5 0 1 0 5 0 a2.5 2.5 0 1 0 -5 0z" fill="black"></path><path d="M807.5 130 a2.5 2.5 0 1 0 5 0 a2.5 2.5 0 1 0 -5 0zM727.5 70 a2.5 2.5 0 1 0 5 0 a2.5 2.5 0 1 0 -5 0z" fill="black"></path><path d="M127.5 350 a2.5 2.5 0 1 0 5 0 a2.5 2.5 0 1 0 -5 0zM27.5 170 a2.5 2.5 0 1 0 5 0 a2.5 2.5 0 1 0 -5 0z" fill="black"></path><path d="M1127.5 330 a2.5 2.5 0 1 0 5 0 a2.5 2.5 0 1 0 -5 0zM1107.5 550 a2.5 2.5 0 1 0 5 0 a2.5 2.5 0 1 0 -5 0z" fill="black"></path><path d="M1147.5 470 a2.5 2.5 0 1 0 5 0 a2.5 2.5 0 1 0 -5 0zM1127.5 550 a2.5 2.5 0 1 0 5 0 a2.5 2.5 0 1 0 -5 0z" fill="black"></path><path d="M1307.5 90 a2.5 2.5 0 1 0 5 0 a2.5 2.5 0 1 0 -5 0zM967.5 250 a2.5 2.5 0 1 0 5 0 a2.5 2.5 0 1 0 -5 0z" fill="black"></path><path d="M1427.5 510 a2.5 2.5 0 1 0 5 0 a2.5 2.5 0 1 0 -5 0zM1167.5 310 a2.5 2.5 0 1 0 5 0 a2.5 2.5 0 1 0 -5 0z" fill="black"></path><path d="M767.5 250 a2.5 2.5 0 1 0 5 0 a2.5 2.5 0 1 0 -5 0zM1147.5 110 a2.5 2.5 0 1 0 5 0 a2.5 2.5 0 1 0 -5 0z" fill="black"></path><path d="M487.5 390 a2.5 2.5 0 1 0 5 0 a2.5 2.5 0 1 0 -5 0zM187.5 230 a2.5 2.5 0 1 0 5 0 a2.5 2.5 0 1 0 -5 0z" fill="black"></path><path d="M547.5 510 a2.5 2.5 0 1 0 5 0 a2.5 2.5 0 1 0 -5 0zM307.5 490 a2.5 2.5 0 1 0 5 0 a2.5 2.5 0 1 0 -5 0z" fill="black"></path><path d="M87.5 270 a2.5 2.5 0 1 0 5 0 a2.5 2.5 0 1 0 -5 0zM267.5 450 a2.5 2.5 0 1 0 5 0 a2.5 2.5 0 1 0 -5 0z" fill="black"></path><path d="M87.5 450 a2.5 2.5 0 1 0 5 0 a2.5 2.5 0 1 0 -5 0zM107.5 350 a2.5 2.5 0 1 0 5 0 a2.5 2.5 0 1 0 -5 0z" fill="black"></path><path d="M267.5 230 a2.5 2.5 0 1 0 5 0 a2.5 2.5 0 1 0 -5 0zM607.5 190 a2.5 2.5 0 1 0 5 0 a2.5 2.5 0 1 0 -5 0z" fill="black"></path><path d="M487.5 30 a2.5 2.5 0 1 0 5 0 a2.5 2.5 0 1 0 -5 0zM167.5 170 a2.5 2.5 0 1 0 5 0 a2.5 2.5 0 1 0 -5 0z" fill="black"></path><path d="M1407.5 290 a2.5 2.5 0 1 0 5 0 a2.5 2.5 0 1 0 -5 0zM1427.5 490 a2.5 2.5 0 1 0 5 0 a2.5 2.5 0 1 0 -5 0z" fill="black"></path><path d="M87.5 230 a2.5 2.5 0 1 0 5 0 a2.5 2.5 0 1 0 -5 0zM47.5 190 a2.5 2.5 0 1 0 5 0 a2.5 2.5 0 1 0 -5 0z" fill="black"></path><path d="M467.5 210 a2.5 2.5 0 1 0 5 0 a2.5 2.5 0 1 0 -5 0zM207.5 310 a2.5 2.5 0 1 0 5 0 a2.5 2.5 0 1 0 -5 0z" fill="black"></path><path d="M1027.5 490 a2.5 2.5 0 1 0 5 0 a2.5 2.5 0 1 0 -5 0zM1027.5 550 a2.5 2.5 0 1 0 5 0 a2.5 2.5 0 1 0 -5 0z" fill="black"></path><path d="M1367.5 410 a2.5 2.5 0 1 0 5 0 a2.5 2.5 0 1 0 -5 0zM1407.5 410 a2.5 2.5 0 1 0 5 0 a2.5 2.5 0 1 0 -5 0z" fill="black"></path><path d="M1087.5 310 a2.5 2.5 0 1 0 5 0 a2.5 2.5 0 1 0 -5 0zM1167.5 270 a2.5 2.5 0 1 0 5 0 a2.5 2.5 0 1 0 -5 0z" fill="black"></path><path d="M1107.5 110 a2.5 2.5 0 1 0 5 0 a2.5 2.5 0 1 0 -5 0zM727.5 310 a2.5 2.5 0 1 0 5 0 a2.5 2.5 0 1 0 -5 0z" fill="black"></path><path d="M527.5 330 a2.5 2.5 0 1 0 5 0 a2.5 2.5 0 1 0 -5 0zM807.5 550 a2.5 2.5 0 1 0 5 0 a2.5 2.5 0 1 0 -5 0z" fill="black"></path><path d="M1367.5 450 a2.5 2.5 0 1 0 5 0 a2.5 2.5 0 1 0 -5 0zM1267.5 190 a2.5 2.5 0 1 0 5 0 a2.5 2.5 0 1 0 -5 0z" fill="black"></path><path d="M287.5 30 a2.5 2.5 0 1 0 5 0 a2.5 2.5 0 1 0 -5 0zM7.5 10 a2.5 2.5 0 1 0 5 0 a2.5 2.5 0 1 0 -5 0z" fill="black"></path><path d="M867.5 390 a2.5 2.5 0 1 0 5 0 a2.5 2.5 0 1 0 -5 0zM647.5 110 a2.5 2.5 0 1 0 5 0 a2.5 2.5 0 1 0 -5 0z" fill="black"></path><path d="M467.5 310 a2.5 2.5 0 1 0 5 0 a2.5 2.5 0 1 0 -5 0zM787.5 550 a2.5 2.5 0 1 0 5 0 a2.5 2.5 0 1 0 -5 0z" fill="black"></path><path d="M1327.5 230 a2.5 2.5 0 1 0 5 0 a2.5 2.5 0 1 0 -5 0zM1387.5 390 a2.5 2.5 0 1 0 5 0 a2.5 2.5 0 1 0 -5 0z" fill="black"></path><path d="M247.5 30 a2.5 2.5 0 1 0 5 0 a2.5 2.5 0 1 0 -5 0zM247.5 150 a2.5 2.5 0 1 0 5 0 a2.5 2.5 0 1 0 -5 0z" fill="black"></path><path d="M987.5 190 a2.5 2.5 0 1 0 5 0 a2.5 2.5 0 1 0 -5 0zM1007.5 130 a2.5 2.5 0 1 0 5 0 a2.5 2.5 0 1 0 -5 0z" fill="black"></path><path d="M1407.5 230 a2.5 2.5 0 1 0 5 0 a2.5 2.5 0 1 0 -5 0zM1427.5 10 a2.5 2.5 0 1 0 5 0 a2.5 2.5 0 1 0 -5 0z" fill="black"></path><path d="M507.5 250 a2.5 2.5 0 1 0 5 0 a2.5 2.5 0 1 0 -5 0zM307.5 410 a2.5 2.5 0 1 0 5 0 a2.5 2.5 0 1 0 -5 0z" fill="black"></path><path d="M987.5 450 a2.5 2.5 0 1 0 5 0 a2.5 2.5 0 1 0 -5 0zM987.5 550 a2.5 2.5 0 1 0 5 0 a2.5 2.5 0 1 0 -5 0z" fill="black"></path><path d="M427.5 490 a2.5 2.5 0 1 0 5 0 a2.5 2.5 0 1 0 -5 0zM447.5 530 a2.5 2.5 0 1 0 5 0 a2.5 2.5 0 1 0 -5 0z" fill="black"></path><path d="M1167.5 330 a2.5 2.5 0 1 0 5 0 a2.5 2.5 0 1 0 -5 0zM1287.5 490 a2.5 2.5 0 1 0 5 0 a2.5 2.5 0 1 0 -5 0z" fill="black"></path><path d="M547.5 470 a2.5 2.5 0 1 0 5 0 a2.5 2.5 0 1 0 -5 0zM487.5 410 a2.5 2.5 0 1 0 5 0 a2.5 2.5 0 1 0 -5 0z" fill="black"></path><path d="M1387.5 550 a2.5 2.5 0 1 0 5 0 a2.5 2.5 0 1 0 -5 0zM1427.5 530 a2.5 2.5 0 1 0 5 0 a2.5 2.5 0 1 0 -5 0z" fill="black"></path><path d="M1007.5 350 a2.5 2.5 0 1 0 5 0 a2.5 2.5 0 1 0 -5 0zM927.5 130 a2.5 2.5 0 1 0 5 0 a2.5 2.5 0 1 0 -5 0z" fill="black"></path><path d="M1327.5 50 a2.5 2.5 0 1 0 5 0 a2.5 2.5 0 1 0 -5 0zM1427.5 270 a2.5 2.5 0 1 0 5 0 a2.5 2.5 0 1 0 -5 0z" fill="black"></path><path d="M1147.5 430 a2.5 2.5 0 1 0 5 0 a2.5 2.5 0 1 0 -5 0zM1127.5 470 a2.5 2.5 0 1 0 5 0 a2.5 2.5 0 1 0 -5 0z" fill="black"></path><path d="M287.5 350 a2.5 2.5 0 1 0 5 0 a2.5 2.5 0 1 0 -5 0zM247.5 310 a2.5 2.5 0 1 0 5 0 a2.5 2.5 0 1 0 -5 0z" fill="black"></path><path d="M287.5 110 a2.5 2.5 0 1 0 5 0 a2.5 2.5 0 1 0 -5 0zM367.5 10 a2.5 2.5 0 1 0 5 0 a2.5 2.5 0 1 0 -5 0z" fill="black"></path><path d="M1327.5 390 a2.5 2.5 0 1 0 5 0 a2.5 2.5 0 1 0 -5 0zM1307.5 150 a2.5 2.5 0 1 0 5 0 a2.5 2.5 0 1 0 -5 0z" fill="black"></path><path d="M1027.5 70 a2.5 2.5 0 1 0 5 0 a2.5 2.5 0 1 0 -5 0zM947.5 90 a2.5 2.5 0 1 0 5 0 a2.5 2.5 0 1 0 -5 0z" fill="black"></path><path d="M847.5 530 a2.5 2.5 0 1 0 5 0 a2.5 2.5 0 1 0 -5 0zM487.5 210 a2.5 2.5 0 1 0 5 0 a2.5 2.5 0 1 0 -5 0z" fill="black"></path><path d="M1087.5 10 a2.5 2.5 0 1 0 5 0 a2.5 2.5 0 1 0 -5 0zM1407.5 10 a2.5 2.5 0 1 0 5 0 a2.5 2.5 0 1 0 -5 0z" fill="black"></path><path d="M87.5 410 a2.5 2.5 0 1 0 5 0 a2.5 2.5 0 1 0 -5 0zM207.5 470 a2.5 2.5 0 1 0 5 0 a2.5 2.5 0 1 0 -5 0z" fill="black"></path><path d="M287.5 290 a2.5 2.5 0 1 0 5 0 a2.5 2.5 0 1 0 -5 0zM267.5 310 a2.5 2.5 0 1 0 5 0 a2.5 2.5 0 1 0 -5 0z" fill="black"></path><path d="M347.5 30 a2.5 2.5 0 1 0 5 0 a2.5 2.5 0 1 0 -5 0zM307.5 150 a2.5 2.5 0 1 0 5 0 a2.5 2.5 0 1 0 -5 0z" fill="black"></path><path d="M1227.5 130 a2.5 2.5 0 1 0 5 0 a2.5 2.5 0 1 0 -5 0zM1027.5 130 a2.5 2.5 0 1 0 5 0 a2.5 2.5 0 1 0 -5 0z" fill="black"></path><path d="M1147.5 230 a2.5 2.5 0 1 0 5 0 a2.5 2.5 0 1 0 -5 0zM827.5 310 a2.5 2.5 0 1 0 5 0 a2.5 2.5 0 1 0 -5 0z" fill="black"></path><path d="M107.5 450 a2.5 2.5 0 1 0 5 0 a2.5 2.5 0 1 0 -5 0zM107.5 550 a2.5 2.5 0 1 0 5 0 a2.5 2.5 0 1 0 -5 0z" fill="black"></path><path d="M1127.5 50 a2.5 2.5 0 1 0 5 0 a2.5 2.5 0 1 0 -5 0zM1267.5 150 a2.5 2.5 0 1 0 5 0 a2.5 2.5 0 1 0 -5 0z" fill="black"></path><path d="M1267.5 310 a2.5 2.5 0 1 0 5 0 a2.5 2.5 0 1 0 -5 0zM1267.5 370 a2.5 2.5 0 1 0 5 0 a2.5 2.5 0 1 0 -5 0z" fill="black"></path><path d="M727.5 30 a2.5 2.5 0 1 0 5 0 a2.5 2.5 0 1 0 -5 0zM1067.5 10 a2.5 2.5 0 1 0 5 0 a2.5 2.5 0 1 0 -5 0z" fill="black"></path><path d="M1127.5 190 a2.5 2.5 0 1 0 5 0 a2.5 2.5 0 1 0 -5 0zM1247.5 150 a2.5 2.5 0 1 0 5 0 a2.5 2.5 0 1 0 -5 0z" fill="black"></path><path d="M967.5 310 a2.5 2.5 0 1 0 5 0 a2.5 2.5 0 1 0 -5 0zM827.5 270 a2.5 2.5 0 1 0 5 0 a2.5 2.5 0 1 0 -5 0z" fill="black"></path><path d="M787.5 450 a2.5 2.5 0 1 0 5 0 a2.5 2.5 0 1 0 -5 0zM1147.5 270 a2.5 2.5 0 1 0 5 0 a2.5 2.5 0 1 0 -5 0z" fill="black"></path><path d="M187.5 450 a2.5 2.5 0 1 0 5 0 a2.5 2.5 0 1 0 -5 0zM87.5 390 a2.5 2.5 0 1 0 5 0 a2.5 2.5 0 1 0 -5 0z" fill="black"></path><path d="M827.5 70 a2.5 2.5 0 1 0 5 0 a2.5 2.5 0 1 0 -5 0zM947.5 30 a2.5 2.5 0 1 0 5 0 a2.5 2.5 0 1 0 -5 0z" fill="black"></path><path d="M87.5 250 a2.5 2.5 0 1 0 5 0 a2.5 2.5 0 1 0 -5 0zM47.5 210 a2.5 2.5 0 1 0 5 0 a2.5 2.5 0 1 0 -5 0z" fill="black"></path><path d="M1207.5 390 a2.5 2.5 0 1 0 5 0 a2.5 2.5 0 1 0 -5 0zM1247.5 430 a2.5 2.5 0 1 0 5 0 a2.5 2.5 0 1 0 -5 0z" fill="black"></path><path d="M747.5 230 a2.5 2.5 0 1 0 5 0 a2.5 2.5 0 1 0 -5 0zM667.5 230 a2.5 2.5 0 1 0 5 0 a2.5 2.5 0 1 0 -5 0z" fill="black"></path><path d="M447.5 370 a2.5 2.5 0 1 0 5 0 a2.5 2.5 0 1 0 -5 0zM427.5 430 a2.5 2.5 0 1 0 5 0 a2.5 2.5 0 1 0 -5 0z" fill="black"></path><path d="M87.5 50 a2.5 2.5 0 1 0 5 0 a2.5 2.5 0 1 0 -5 0zM7.5 30 a2.5 2.5 0 1 0 5 0 a2.5 2.5 0 1 0 -5 0z" fill="black"></path><path d="M1047.5 190 a2.5 2.5 0 1 0 5 0 a2.5 2.5 0 1 0 -5 0zM1047.5 150 a2.5 2.5 0 1 0 5 0 a2.5 2.5 0 1 0 -5 0z" fill="black"></path><path d="M547.5 210 a2.5 2.5 0 1 0 5 0 a2.5 2.5 0 1 0 -5 0zM767.5 450 a2.5 2.5 0 1 0 5 0 a2.5 2.5 0 1 0 -5 0z" fill="black"></path><path d="M207.5 210 a2.5 2.5 0 1 0 5 0 a2.5 2.5 0 1 0 -5 0zM167.5 210 a2.5 2.5 0 1 0 5 0 a2.5 2.5 0 1 0 -5 0z" fill="black"></path><path d="M927.5 270 a2.5 2.5 0 1 0 5 0 a2.5 2.5 0 1 0 -5 0zM1087.5 270 a2.5 2.5 0 1 0 5 0 a2.5 2.5 0 1 0 -5 0z" fill="black"></path><path d="M87.5 510 a2.5 2.5 0 1 0 5 0 a2.5 2.5 0 1 0 -5 0zM7.5 550 a2.5 2.5 0 1 0 5 0 a2.5 2.5 0 1 0 -5 0z" fill="black"></path><path d="M447.5 490 a2.5 2.5 0 1 0 5 0 a2.5 2.5 0 1 0 -5 0zM687.5 550 a2.5 2.5 0 1 0 5 0 a2.5 2.5 0 1 0 -5 0z" fill="black"></path><path d="M487.5 270 a2.5 2.5 0 1 0 5 0 a2.5 2.5 0 1 0 -5 0zM507.5 330 a2.5 2.5 0 1 0 5 0 a2.5 2.5 0 1 0 -5 0z" fill="black"></path><path d="M1187.5 550 a2.5 2.5 0 1 0 5 0 a2.5 2.5 0 1 0 -5 0zM1147.5 550 a2.5 2.5 0 1 0 5 0 a2.5 2.5 0 1 0 -5 0z" fill="black"></path><path d="M507.5 370 a2.5 2.5 0 1 0 5 0 a2.5 2.5 0 1 0 -5 0zM667.5 530 a2.5 2.5 0 1 0 5 0 a2.5 2.5 0 1 0 -5 0z" fill="black"></path><path d="M447.5 70 a2.5 2.5 0 1 0 5 0 a2.5 2.5 0 1 0 -5 0zM407.5 110 a2.5 2.5 0 1 0 5 0 a2.5 2.5 0 1 0 -5 0z" fill="black"></path><path d="M527.5 350 a2.5 2.5 0 1 0 5 0 a2.5 2.5 0 1 0 -5 0zM767.5 530 a2.5 2.5 0 1 0 5 0 a2.5 2.5 0 1 0 -5 0z" fill="black"></path><path d="M527.5 530 a2.5 2.5 0 1 0 5 0 a2.5 2.5 0 1 0 -5 0zM587.5 550 a2.5 2.5 0 1 0 5 0 a2.5 2.5 0 1 0 -5 0z" fill="black"></path><path d="M847.5 30 a2.5 2.5 0 1 0 5 0 a2.5 2.5 0 1 0 -5 0zM927.5 30 a2.5 2.5 0 1 0 5 0 a2.5 2.5 0 1 0 -5 0z" fill="black"></path><path d="M27.5 490 a2.5 2.5 0 1 0 5 0 a2.5 2.5 0 1 0 -5 0zM7.5 450 a2.5 2.5 0 1 0 5 0 a2.5 2.5 0 1 0 -5 0z" fill="black"></path><path d="M707.5 10 a2.5 2.5 0 1 0 5 0 a2.5 2.5 0 1 0 -5 0zM707.5 50 a2.5 2.5 0 1 0 5 0 a2.5 2.5 0 1 0 -5 0z" fill="black"></path><path d="M327.5 510 a2.5 2.5 0 1 0 5 0 a2.5 2.5 0 1 0 -5 0zM427.5 530 a2.5 2.5 0 1 0 5 0 a2.5 2.5 0 1 0 -5 0z" fill="black"></path><path d="M1347.5 170 a2.5 2.5 0 1 0 5 0 a2.5 2.5 0 1 0 -5 0zM1427.5 250 a2.5 2.5 0 1 0 5 0 a2.5 2.5 0 1 0 -5 0z" fill="black"></path><path d="M467.5 50 a2.5 2.5 0 1 0 5 0 a2.5 2.5 0 1 0 -5 0zM407.5 50 a2.5 2.5 0 1 0 5 0 a2.5 2.5 0 1 0 -5 0z" fill="black"></path><path d="M1327.5 290 a2.5 2.5 0 1 0 5 0 a2.5 2.5 0 1 0 -5 0zM1287.5 210 a2.5 2.5 0 1 0 5 0 a2.5 2.5 0 1 0 -5 0z" fill="black"></path><path d="M127.5 90 a2.5 2.5 0 1 0 5 0 a2.5 2.5 0 1 0 -5 0zM227.5 50 a2.5 2.5 0 1 0 5 0 a2.5 2.5 0 1 0 -5 0z" fill="black"></path><path d="M767.5 110 a2.5 2.5 0 1 0 5 0 a2.5 2.5 0 1 0 -5 0zM727.5 110 a2.5 2.5 0 1 0 5 0 a2.5 2.5 0 1 0 -5 0z" fill="black"></path><path d="M647.5 50 a2.5 2.5 0 1 0 5 0 a2.5 2.5 0 1 0 -5 0zM387.5 170 a2.5 2.5 0 1 0 5 0 a2.5 2.5 0 1 0 -5 0z" fill="black"></path><path d="M927.5 510 a2.5 2.5 0 1 0 5 0 a2.5 2.5 0 1 0 -5 0zM927.5 550 a2.5 2.5 0 1 0 5 0 a2.5 2.5 0 1 0 -5 0z" fill="black"></path><path d="M1367.5 190 a2.5 2.5 0 1 0 5 0 a2.5 2.5 0 1 0 -5 0zM1387.5 30 a2.5 2.5 0 1 0 5 0 a2.5 2.5 0 1 0 -5 0z" fill="black"></path><path d="M907.5 370 a2.5 2.5 0 1 0 5 0 a2.5 2.5 0 1 0 -5 0zM867.5 370 a2.5 2.5 0 1 0 5 0 a2.5 2.5 0 1 0 -5 0z" fill="black"></path><path d="M807.5 330 a2.5 2.5 0 1 0 5 0 a2.5 2.5 0 1 0 -5 0zM767.5 290 a2.5 2.5 0 1 0 5 0 a2.5 2.5 0 1 0 -5 0z" fill="black"></path><path d="M87.5 130 a2.5 2.5 0 1 0 5 0 a2.5 2.5 0 1 0 -5 0zM47.5 130 a2.5 2.5 0 1 0 5 0 a2.5 2.5 0 1 0 -5 0z" fill="black"></path><path d="M647.5 450 a2.5 2.5 0 1 0 5 0 a2.5 2.5 0 1 0 -5 0zM547.5 370 a2.5 2.5 0 1 0 5 0 a2.5 2.5 0 1 0 -5 0z" fill="black"></path><path d="M847.5 130 a2.5 2.5 0 1 0 5 0 a2.5 2.5 0 1 0 -5 0zM807.5 30 a2.5 2.5 0 1 0 5 0 a2.5 2.5 0 1 0 -5 0z" fill="black"></path><path d="M487.5 490 a2.5 2.5 0 1 0 5 0 a2.5 2.5 0 1 0 -5 0zM467.5 450 a2.5 2.5 0 1 0 5 0 a2.5 2.5 0 1 0 -5 0z" fill="black"></path><path d="M967.5 170 a2.5 2.5 0 1 0 5 0 a2.5 2.5 0 1 0 -5 0zM947.5 130 a2.5 2.5 0 1 0 5 0 a2.5 2.5 0 1 0 -5 0z" fill="black"></path><path d="M1227.5 30 a2.5 2.5 0 1 0 5 0 a2.5 2.5 0 1 0 -5 0zM1287.5 130 a2.5 2.5 0 1 0 5 0 a2.5 2.5 0 1 0 -5 0z" fill="black"></path><path d="M1347.5 350 a2.5 2.5 0 1 0 5 0 a2.5 2.5 0 1 0 -5 0zM1307.5 470 a2.5 2.5 0 1 0 5 0 a2.5 2.5 0 1 0 -5 0z" fill="black"></path><path d="M147.5 550 a2.5 2.5 0 1 0 5 0 a2.5 2.5 0 1 0 -5 0zM127.5 470 a2.5 2.5 0 1 0 5 0 a2.5 2.5 0 1 0 -5 0z" fill="black"></path><path d="M1267.5 330 a2.5 2.5 0 1 0 5 0 a2.5 2.5 0 1 0 -5 0zM1247.5 310 a2.5 2.5 0 1 0 5 0 a2.5 2.5 0 1 0 -5 0z" fill="black"></path><path d="M1067.5 210 a2.5 2.5 0 1 0 5 0 a2.5 2.5 0 1 0 -5 0zM1067.5 150 a2.5 2.5 0 1 0 5 0 a2.5 2.5 0 1 0 -5 0z" fill="black"></path><path d="M187.5 130 a2.5 2.5 0 1 0 5 0 a2.5 2.5 0 1 0 -5 0zM27.5 90 a2.5 2.5 0 1 0 5 0 a2.5 2.5 0 1 0 -5 0z" fill="black"></path><path d="M1067.5 510 a2.5 2.5 0 1 0 5 0 a2.5 2.5 0 1 0 -5 0zM1067.5 330 a2.5 2.5 0 1 0 5 0 a2.5 2.5 0 1 0 -5 0z" fill="black"></path><path d="M227.5 70 a2.5 2.5 0 1 0 5 0 a2.5 2.5 0 1 0 -5 0zM167.5 90 a2.5 2.5 0 1 0 5 0 a2.5 2.5 0 1 0 -5 0z" fill="black"></path><path d="M707.5 510 a2.5 2.5 0 1 0 5 0 a2.5 2.5 0 1 0 -5 0zM667.5 470 a2.5 2.5 0 1 0 5 0 a2.5 2.5 0 1 0 -5 0z" fill="black"></path><path d="M187.5 30 a2.5 2.5 0 1 0 5 0 a2.5 2.5 0 1 0 -5 0zM227.5 30 a2.5 2.5 0 1 0 5 0 a2.5 2.5 0 1 0 -5 0z" fill="black"></path><path d="M527.5 290 a2.5 2.5 0 1 0 5 0 a2.5 2.5 0 1 0 -5 0zM567.5 310 a2.5 2.5 0 1 0 5 0 a2.5 2.5 0 1 0 -5 0z" fill="black"></path><path d="M107.5 190 a2.5 2.5 0 1 0 5 0 a2.5 2.5 0 1 0 -5 0zM127.5 230 a2.5 2.5 0 1 0 5 0 a2.5 2.5 0 1 0 -5 0z" fill="black"></path><path d="M427.5 270 a2.5 2.5 0 1 0 5 0 a2.5 2.5 0 1 0 -5 0zM407.5 390 a2.5 2.5 0 1 0 5 0 a2.5 2.5 0 1 0 -5 0z" fill="black"></path><path d="M1367.5 290 a2.5 2.5 0 1 0 5 0 a2.5 2.5 0 1 0 -5 0zM1267.5 350 a2.5 2.5 0 1 0 5 0 a2.5 2.5 0 1 0 -5 0z" fill="black"></path><path d="M487.5 550 a2.5 2.5 0 1 0 5 0 a2.5 2.5 0 1 0 -5 0zM567.5 550 a2.5 2.5 0 1 0 5 0 a2.5 2.5 0 1 0 -5 0z" fill="black"></path><path d="M747.5 210 a2.5 2.5 0 1 0 5 0 a2.5 2.5 0 1 0 -5 0zM667.5 210 a2.5 2.5 0 1 0 5 0 a2.5 2.5 0 1 0 -5 0z" fill="black"></path><path d="M827.5 430 a2.5 2.5 0 1 0 5 0 a2.5 2.5 0 1 0 -5 0zM987.5 370 a2.5 2.5 0 1 0 5 0 a2.5 2.5 0 1 0 -5 0z" fill="black"></path><path d="M207.5 410 a2.5 2.5 0 1 0 5 0 a2.5 2.5 0 1 0 -5 0zM247.5 470 a2.5 2.5 0 1 0 5 0 a2.5 2.5 0 1 0 -5 0z" fill="black"></path><path d="M1287.5 410 a2.5 2.5 0 1 0 5 0 a2.5 2.5 0 1 0 -5 0zM1327.5 410 a2.5 2.5 0 1 0 5 0 a2.5 2.5 0 1 0 -5 0z" fill="black"></path><path d="M907.5 530 a2.5 2.5 0 1 0 5 0 a2.5 2.5 0 1 0 -5 0zM867.5 550 a2.5 2.5 0 1 0 5 0 a2.5 2.5 0 1 0 -5 0z" fill="black"></path><path d="M227.5 110 a2.5 2.5 0 1 0 5 0 a2.5 2.5 0 1 0 -5 0zM187.5 110 a2.5 2.5 0 1 0 5 0 a2.5 2.5 0 1 0 -5 0z" fill="black"></path><path d="M787.5 430 a2.5 2.5 0 1 0 5 0 a2.5 2.5 0 1 0 -5 0zM867.5 490 a2.5 2.5 0 1 0 5 0 a2.5 2.5 0 1 0 -5 0z" fill="black"></path><path d="M1167.5 490 a2.5 2.5 0 1 0 5 0 a2.5 2.5 0 1 0 -5 0zM1167.5 450 a2.5 2.5 0 1 0 5 0 a2.5 2.5 0 1 0 -5 0z" fill="black"></path><path d="M1247.5 170 a2.5 2.5 0 1 0 5 0 a2.5 2.5 0 1 0 -5 0zM1087.5 210 a2.5 2.5 0 1 0 5 0 a2.5 2.5 0 1 0 -5 0z" fill="black"></path><path d="M1047.5 210 a2.5 2.5 0 1 0 5 0 a2.5 2.5 0 1 0 -5 0zM1007.5 190 a2.5 2.5 0 1 0 5 0 a2.5 2.5 0 1 0 -5 0z" fill="black"></path><path d="M807.5 170 a2.5 2.5 0 1 0 5 0 a2.5 2.5 0 1 0 -5 0zM767.5 70 a2.5 2.5 0 1 0 5 0 a2.5 2.5 0 1 0 -5 0z" fill="black"></path><path d="M267.5 190 a2.5 2.5 0 1 0 5 0 a2.5 2.5 0 1 0 -5 0zM207.5 250 a2.5 2.5 0 1 0 5 0 a2.5 2.5 0 1 0 -5 0z" fill="black"></path><path d="M1347.5 390 a2.5 2.5 0 1 0 5 0 a2.5 2.5 0 1 0 -5 0zM1307.5 350 a2.5 2.5 0 1 0 5 0 a2.5 2.5 0 1 0 -5 0z" fill="black"></path><path d="M627.5 110 a2.5 2.5 0 1 0 5 0 a2.5 2.5 0 1 0 -5 0zM667.5 50 a2.5 2.5 0 1 0 5 0 a2.5 2.5 0 1 0 -5 0z" fill="black"></path><path d="M1207.5 30 a2.5 2.5 0 1 0 5 0 a2.5 2.5 0 1 0 -5 0zM1267.5 130 a2.5 2.5 0 1 0 5 0 a2.5 2.5 0 1 0 -5 0z" fill="black"></path><path d="M1307.5 30 a2.5 2.5 0 1 0 5 0 a2.5 2.5 0 1 0 -5 0zM1307.5 70 a2.5 2.5 0 1 0 5 0 a2.5 2.5 0 1 0 -5 0z" fill="black"></path><path d="M967.5 490 a2.5 2.5 0 1 0 5 0 a2.5 2.5 0 1 0 -5 0zM967.5 450 a2.5 2.5 0 1 0 5 0 a2.5 2.5 0 1 0 -5 0z" fill="black"></path><path d="M1127.5 170 a2.5 2.5 0 1 0 5 0 a2.5 2.5 0 1 0 -5 0zM1087.5 190 a2.5 2.5 0 1 0 5 0 a2.5 2.5 0 1 0 -5 0z" fill="black"></path><path d="M907.5 250 a2.5 2.5 0 1 0 5 0 a2.5 2.5 0 1 0 -5 0zM1027.5 290 a2.5 2.5 0 1 0 5 0 a2.5 2.5 0 1 0 -5 0z" fill="black"></path><path d="M67.5 90 a2.5 2.5 0 1 0 5 0 a2.5 2.5 0 1 0 -5 0zM107.5 30 a2.5 2.5 0 1 0 5 0 a2.5 2.5 0 1 0 -5 0z" fill="black"></path><path d="M1187.5 290 a2.5 2.5 0 1 0 5 0 a2.5 2.5 0 1 0 -5 0zM1167.5 350 a2.5 2.5 0 1 0 5 0 a2.5 2.5 0 1 0 -5 0z" fill="black"></path><path d="M1167.5 90 a2.5 2.5 0 1 0 5 0 a2.5 2.5 0 1 0 -5 0zM1127.5 70 a2.5 2.5 0 1 0 5 0 a2.5 2.5 0 1 0 -5 0z" fill="black"></path><path d="M627.5 130 a2.5 2.5 0 1 0 5 0 a2.5 2.5 0 1 0 -5 0zM567.5 130 a2.5 2.5 0 1 0 5 0 a2.5 2.5 0 1 0 -5 0z" fill="black"></path><path d="M1287.5 530 a2.5 2.5 0 1 0 5 0 a2.5 2.5 0 1 0 -5 0zM1147.5 510 a2.5 2.5 0 1 0 5 0 a2.5 2.5 0 1 0 -5 0z" fill="black"></path><path d="M107.5 390 a2.5 2.5 0 1 0 5 0 a2.5 2.5 0 1 0 -5 0zM167.5 430 a2.5 2.5 0 1 0 5 0 a2.5 2.5 0 1 0 -5 0z" fill="black"></path><path d="M367.5 390 a2.5 2.5 0 1 0 5 0 a2.5 2.5 0 1 0 -5 0zM387.5 430 a2.5 2.5 0 1 0 5 0 a2.5 2.5 0 1 0 -5 0z" fill="black"></path><path d="M47.5 490 a2.5 2.5 0 1 0 5 0 a2.5 2.5 0 1 0 -5 0zM7.5 470 a2.5 2.5 0 1 0 5 0 a2.5 2.5 0 1 0 -5 0z" fill="black"></path><path d="M447.5 250 a2.5 2.5 0 1 0 5 0 a2.5 2.5 0 1 0 -5 0zM327.5 250 a2.5 2.5 0 1 0 5 0 a2.5 2.5 0 1 0 -5 0z" fill="black"></path><path d="M787.5 390 a2.5 2.5 0 1 0 5 0 a2.5 2.5 0 1 0 -5 0zM967.5 370 a2.5 2.5 0 1 0 5 0 a2.5 2.5 0 1 0 -5 0z" fill="black"></path><path d="M427.5 30 a2.5 2.5 0 1 0 5 0 a2.5 2.5 0 1 0 -5 0zM547.5 10 a2.5 2.5 0 1 0 5 0 a2.5 2.5 0 1 0 -5 0z" fill="black"></path><path d="M267.5 30 a2.5 2.5 0 1 0 5 0 a2.5 2.5 0 1 0 -5 0zM267.5 110 a2.5 2.5 0 1 0 5 0 a2.5 2.5 0 1 0 -5 0z" fill="black"></path><path d="M1327.5 530 a2.5 2.5 0 1 0 5 0 a2.5 2.5 0 1 0 -5 0zM1287.5 550 a2.5 2.5 0 1 0 5 0 a2.5 2.5 0 1 0 -5 0z" fill="black"></path><path d="M1367.5 490 a2.5 2.5 0 1 0 5 0 a2.5 2.5 0 1 0 -5 0zM1327.5 470 a2.5 2.5 0 1 0 5 0 a2.5 2.5 0 1 0 -5 0z" fill="black"></path><path d="M1187.5 210 a2.5 2.5 0 1 0 5 0 a2.5 2.5 0 1 0 -5 0zM1227.5 190 a2.5 2.5 0 1 0 5 0 a2.5 2.5 0 1 0 -5 0z" fill="black"></path><path d="M867.5 210 a2.5 2.5 0 1 0 5 0 a2.5 2.5 0 1 0 -5 0zM1007.5 210 a2.5 2.5 0 1 0 5 0 a2.5 2.5 0 1 0 -5 0z" fill="black"></path><path d="M347.5 110 a2.5 2.5 0 1 0 5 0 a2.5 2.5 0 1 0 -5 0zM367.5 50 a2.5 2.5 0 1 0 5 0 a2.5 2.5 0 1 0 -5 0z" fill="black"></path><path d="M367.5 330 a2.5 2.5 0 1 0 5 0 a2.5 2.5 0 1 0 -5 0zM407.5 370 a2.5 2.5 0 1 0 5 0 a2.5 2.5 0 1 0 -5 0z" fill="black"></path><path d="M187.5 90 a2.5 2.5 0 1 0 5 0 a2.5 2.5 0 1 0 -5 0zM227.5 90 a2.5 2.5 0 1 0 5 0 a2.5 2.5 0 1 0 -5 0z" fill="black"></path><path d="M607.5 70 a2.5 2.5 0 1 0 5 0 a2.5 2.5 0 1 0 -5 0zM567.5 30 a2.5 2.5 0 1 0 5 0 a2.5 2.5 0 1 0 -5 0z" fill="black"></path><path d="M167.5 30 a2.5 2.5 0 1 0 5 0 a2.5 2.5 0 1 0 -5 0zM87.5 90 a2.5 2.5 0 1 0 5 0 a2.5 2.5 0 1 0 -5 0z" fill="black"></path><path d="M347.5 310 a2.5 2.5 0 1 0 5 0 a2.5 2.5 0 1 0 -5 0zM407.5 330 a2.5 2.5 0 1 0 5 0 a2.5 2.5 0 1 0 -5 0z" fill="black"></path><path d="M1187.5 230 a2.5 2.5 0 1 0 5 0 a2.5 2.5 0 1 0 -5 0zM1147.5 210 a2.5 2.5 0 1 0 5 0 a2.5 2.5 0 1 0 -5 0z" fill="black"></path><path d="M1047.5 70 a2.5 2.5 0 1 0 5 0 a2.5 2.5 0 1 0 -5 0zM1107.5 90 a2.5 2.5 0 1 0 5 0 a2.5 2.5 0 1 0 -5 0z" fill="black"></path><path d="M887.5 290 a2.5 2.5 0 1 0 5 0 a2.5 2.5 0 1 0 -5 0zM847.5 250 a2.5 2.5 0 1 0 5 0 a2.5 2.5 0 1 0 -5 0z" fill="black"></path><path d="M727.5 270 a2.5 2.5 0 1 0 5 0 a2.5 2.5 0 1 0 -5 0zM667.5 270 a2.5 2.5 0 1 0 5 0 a2.5 2.5 0 1 0 -5 0z" fill="black"></path><path d="M1227.5 510 a2.5 2.5 0 1 0 5 0 a2.5 2.5 0 1 0 -5 0zM1187.5 470 a2.5 2.5 0 1 0 5 0 a2.5 2.5 0 1 0 -5 0z" fill="black"></path><path d="M587.5 70 a2.5 2.5 0 1 0 5 0 a2.5 2.5 0 1 0 -5 0zM527.5 130 a2.5 2.5 0 1 0 5 0 a2.5 2.5 0 1 0 -5 0z" fill="black"></path><path d="M1047.5 510 a2.5 2.5 0 1 0 5 0 a2.5 2.5 0 1 0 -5 0zM1047.5 350 a2.5 2.5 0 1 0 5 0 a2.5 2.5 0 1 0 -5 0z" fill="black"></path><path d="M1367.5 130 a2.5 2.5 0 1 0 5 0 a2.5 2.5 0 1 0 -5 0zM1367.5 30 a2.5 2.5 0 1 0 5 0 a2.5 2.5 0 1 0 -5 0z" fill="black"></path><path d="M1027.5 190 a2.5 2.5 0 1 0 5 0 a2.5 2.5 0 1 0 -5 0zM1027.5 150 a2.5 2.5 0 1 0 5 0 a2.5 2.5 0 1 0 -5 0z" fill="black"></path><path d="M207.5 550 a2.5 2.5 0 1 0 5 0 a2.5 2.5 0 1 0 -5 0zM167.5 490 a2.5 2.5 0 1 0 5 0 a2.5 2.5 0 1 0 -5 0z" fill="black"></path><path d="M1327.5 330 a2.5 2.5 0 1 0 5 0 a2.5 2.5 0 1 0 -5 0zM1367.5 310 a2.5 2.5 0 1 0 5 0 a2.5 2.5 0 1 0 -5 0z" fill="black"></path><path d="M67.5 310 a2.5 2.5 0 1 0 5 0 a2.5 2.5 0 1 0 -5 0zM47.5 410 a2.5 2.5 0 1 0 5 0 a2.5 2.5 0 1 0 -5 0z" fill="black"></path><path d="M587.5 110 a2.5 2.5 0 1 0 5 0 a2.5 2.5 0 1 0 -5 0zM547.5 70 a2.5 2.5 0 1 0 5 0 a2.5 2.5 0 1 0 -5 0z" fill="black"></path><path d="M787.5 370 a2.5 2.5 0 1 0 5 0 a2.5 2.5 0 1 0 -5 0zM847.5 390 a2.5 2.5 0 1 0 5 0 a2.5 2.5 0 1 0 -5 0z" fill="black"></path><path d="M367.5 270 a2.5 2.5 0 1 0 5 0 a2.5 2.5 0 1 0 -5 0zM407.5 270 a2.5 2.5 0 1 0 5 0 a2.5 2.5 0 1 0 -5 0z" fill="black"></path><path d="M467.5 370 a2.5 2.5 0 1 0 5 0 a2.5 2.5 0 1 0 -5 0zM447.5 410 a2.5 2.5 0 1 0 5 0 a2.5 2.5 0 1 0 -5 0z" fill="black"></path><path d="M1007.5 410 a2.5 2.5 0 1 0 5 0 a2.5 2.5 0 1 0 -5 0zM1007.5 550 a2.5 2.5 0 1 0 5 0 a2.5 2.5 0 1 0 -5 0z" fill="black"></path><path d="M1427.5 90 a2.5 2.5 0 1 0 5 0 a2.5 2.5 0 1 0 -5 0zM1427.5 230 a2.5 2.5 0 1 0 5 0 a2.5 2.5 0 1 0 -5 0z" fill="black"></path><path d="M1367.5 170 a2.5 2.5 0 1 0 5 0 a2.5 2.5 0 1 0 -5 0zM1347.5 30 a2.5 2.5 0 1 0 5 0 a2.5 2.5 0 1 0 -5 0z" fill="black"></path><path d="M907.5 50 a2.5 2.5 0 1 0 5 0 a2.5 2.5 0 1 0 -5 0zM827.5 50 a2.5 2.5 0 1 0 5 0 a2.5 2.5 0 1 0 -5 0z" fill="black"></path><path d="M787.5 150 a2.5 2.5 0 1 0 5 0 a2.5 2.5 0 1 0 -5 0zM747.5 130 a2.5 2.5 0 1 0 5 0 a2.5 2.5 0 1 0 -5 0z" fill="black"></path><path d="M887.5 190 a2.5 2.5 0 1 0 5 0 a2.5 2.5 0 1 0 -5 0zM927.5 150 a2.5 2.5 0 1 0 5 0 a2.5 2.5 0 1 0 -5 0z" fill="black"></path><path d="M247.5 190 a2.5 2.5 0 1 0 5 0 a2.5 2.5 0 1 0 -5 0zM187.5 190 a2.5 2.5 0 1 0 5 0 a2.5 2.5 0 1 0 -5 0z" fill="black"></path><path d="M47.5 230 a2.5 2.5 0 1 0 5 0 a2.5 2.5 0 1 0 -5 0zM67.5 270 a2.5 2.5 0 1 0 5 0 a2.5 2.5 0 1 0 -5 0z" fill="black"></path><path d="M447.5 310 a2.5 2.5 0 1 0 5 0 a2.5 2.5 0 1 0 -5 0zM467.5 270 a2.5 2.5 0 1 0 5 0 a2.5 2.5 0 1 0 -5 0z" fill="black"></path><path d="M27.5 350 a2.5 2.5 0 1 0 5 0 a2.5 2.5 0 1 0 -5 0zM67.5 350 a2.5 2.5 0 1 0 5 0 a2.5 2.5 0 1 0 -5 0z" fill="black"></path><path d="M607.5 90 a2.5 2.5 0 1 0 5 0 a2.5 2.5 0 1 0 -5 0zM567.5 90 a2.5 2.5 0 1 0 5 0 a2.5 2.5 0 1 0 -5 0z" fill="black"></path><path d="M567.5 170 a2.5 2.5 0 1 0 5 0 a2.5 2.5 0 1 0 -5 0zM427.5 170 a2.5 2.5 0 1 0 5 0 a2.5 2.5 0 1 0 -5 0z" fill="black"></path><path d="M607.5 470 a2.5 2.5 0 1 0 5 0 a2.5 2.5 0 1 0 -5 0zM567.5 430 a2.5 2.5 0 1 0 5 0 a2.5 2.5 0 1 0 -5 0z" fill="black"></path><path d="M327.5 530 a2.5 2.5 0 1 0 5 0 a2.5 2.5 0 1 0 -5 0zM267.5 490 a2.5 2.5 0 1 0 5 0 a2.5 2.5 0 1 0 -5 0z" fill="black"></path><path d="M307.5 530 a2.5 2.5 0 1 0 5 0 a2.5 2.5 0 1 0 -5 0zM267.5 510 a2.5 2.5 0 1 0 5 0 a2.5 2.5 0 1 0 -5 0z" fill="black"></path><path d="M627.5 90 a2.5 2.5 0 1 0 5 0 a2.5 2.5 0 1 0 -5 0zM627.5 50 a2.5 2.5 0 1 0 5 0 a2.5 2.5 0 1 0 -5 0z" fill="black"></path><path d="M407.5 290 a2.5 2.5 0 1 0 5 0 a2.5 2.5 0 1 0 -5 0zM327.5 290 a2.5 2.5 0 1 0 5 0 a2.5 2.5 0 1 0 -5 0z" fill="black"></path><path d="M67.5 150 a2.5 2.5 0 1 0 5 0 a2.5 2.5 0 1 0 -5 0zM107.5 150 a2.5 2.5 0 1 0 5 0 a2.5 2.5 0 1 0 -5 0z" fill="black"></path><path d="M1027.5 430 a2.5 2.5 0 1 0 5 0 a2.5 2.5 0 1 0 -5 0zM1027.5 470 a2.5 2.5 0 1 0 5 0 a2.5 2.5 0 1 0 -5 0z" fill="black"></path><path d="M47.5 290 a2.5 2.5 0 1 0 5 0 a2.5 2.5 0 1 0 -5 0zM47.5 330 a2.5 2.5 0 1 0 5 0 a2.5 2.5 0 1 0 -5 0z" fill="black"></path><path d="M1087.5 330 a2.5 2.5 0 1 0 5 0 a2.5 2.5 0 1 0 -5 0zM1087.5 370 a2.5 2.5 0 1 0 5 0 a2.5 2.5 0 1 0 -5 0z" fill="black"></path></mask></defs></svg>